<svg xmlns="http://www.w3.org/2000/svg" xmlns:xlink="http://www.w3.org/1999/xlink" viewBox="0 0 2048.14 1152.08"><defs><style>.cls-1{fill:none;}.cls-2{opacity:0.39;}.cls-10,.cls-15,.cls-19,.cls-21,.cls-3{fill:#fff;}.cls-4{clip-path:url(#clip-path);}.cls-5{fill:#c4cbd6;}.cls-6{fill:#dad6d9;}.cls-7{fill:#8be1cf;}.cls-8{fill:#ecbf64;}.cls-9{fill:#a2dbf3;}.cls-10{font-size:132.26px;}.cls-10,.cls-15,.cls-19,.cls-21{font-family:Quicksand-Bold, Quicksand Bold;font-weight:700;}.cls-11{fill:#596577;}.cls-12{fill:#f0dab1;}.cls-13{fill:#dda03c;}.cls-14{fill:#bde8f7;}.cls-15{font-size:97.51px;}.cls-16{fill:#f6e7cf;}.cls-17{fill:#5a6678;}.cls-18{fill:#fefdff;}.cls-19{font-size:97.51px;}.cls-20{fill:#c3691e;}.cls-21{font-size:97.51px;}.cls-22{fill:#4a5a71;}.cls-23{fill:#e7a356;}.cls-24{fill:#ffa44a;}.cls-25{fill:#3d5156;}.cls-26{fill:#fcd3b9;}.cls-27{fill:#e03b57;}.cls-28{fill:#323e49;}.cls-29{fill:#fcbd8d;}.cls-30{fill:#29b5cc;}.cls-31{fill:#dd723c;}.cls-32{fill:#2c253d;}.cls-33{fill:#ffba55;}</style><clipPath id="clip-path"><rect class="cls-1" y="-141.4" width="2048.14" height="1365.43"/></clipPath></defs><g id="Layer_4" data-name="Layer 4"><g class="cls-2"><rect class="cls-3" y="-141.4" width="2048.14" height="1365.43"/><g class="cls-4"><rect class="cls-5" x="275.45" y="1052" width="275.64" height="204.37" transform="translate(-812.56 1137.25) rotate(-69.51)"/><rect class="cls-3" x="287.41" y="1066.18" width="253.04" height="172.47" transform="translate(-810.47 1136.7) rotate(-69.51)"/><rect class="cls-6" x="470.95" y="1037.51" width="6.58" height="89.45" transform="translate(-705.53 1147.6) rotate(-69.51)"/><rect class="cls-6" x="455.58" y="1078.61" width="6.58" height="89.45" transform="translate(-754.02 1159.91) rotate(-69.51)"/><rect class="cls-6" x="440.22" y="1119.71" width="6.58" height="89.45" transform="translate(-802.5 1172.23) rotate(-69.51)"/><path class="cls-6" d="M402.92,1077.77l-37.55-14,14-37.55,37.55,14ZM373,1060.25l26.42,9.88,9.88-26.42-26.42-9.88Z"/><polygon class="cls-7" points="385.74 1066.38 378.46 1049.42 383.92 1047.09 388.79 1058.44 427.82 1040.47 430.3 1045.86 385.74 1066.38"/><path class="cls-6" d="M382.13,1133.4l-37.55-14,14-37.54,37.55,14Zm-29.91-17.52,26.43,9.88,9.87-26.43-26.42-9.87Z"/><polygon class="cls-7" points="364.94 1122.01 357.68 1105.05 363.13 1102.71 368 1114.06 407.03 1096.09 409.51 1101.49 364.94 1122.01"/><path class="cls-6" d="M361.34,1189l-37.55-14,14-37.55,37.55,14Zm-29.91-17.51,26.43,9.87,9.87-26.42-26.42-9.88Z"/><polygon class="cls-7" points="344.16 1177.63 336.89 1160.67 342.34 1158.34 347.21 1169.69 386.24 1151.72 388.72 1157.11 344.16 1177.63"/><path class="cls-8" d="M493.14,1032.89c-8.39-3.13-10.53-9.64-11-13.65a16.88,16.88,0,0,0,2.17-4,17.27,17.27,0,1,0-33.36-7.63c-3,2.69-8.89,6.2-17.28,3.06-12.6-4.71-21.58-1.79-24,4.75l49.27,18.42h0l49.27,18.41C510.6,1045.7,505.74,1037.6,493.14,1032.89Zm-26.81-19a6.39,6.39,0,1,1,8.21-3.75A6.39,6.39,0,0,1,466.33,1013.9Z"/><path class="cls-9" d="M436.28,887a70.66,70.66,0,1,1-37.06-92.8A70.66,70.66,0,0,1,436.28,887Z"/><text class="cls-10" transform="translate(329.82 893.31) rotate(23.23)">?</text><path class="cls-9" d="M386.88,421.41A4.6,4.6,0,0,0,381.4,418l-79.7,18.84a4.6,4.6,0,0,0-3.38,5.48q9.42,39.84,18.84,79.69a4.61,4.61,0,0,0,5.48,3.39l79.7-18.85a4.21,4.21,0,0,0,2.72-1.89,1395076991429.56,1395076991429.56,0,0,1,.18-.3,4.19,4.19,0,0,0,.48-3.29Zm8.94,77.37L325,515.53q-8.37-35.43-16.75-70.85l70.85-16.75Q387.44,463.35,395.82,498.78Z"/><path class="cls-9" d="M322.52,478.26l24.72,17.54c2.08,1.48,4.93.47,6.26-1.48l27.29-40.12c3.31-4.86-4.45-9.62-7.74-4.78l-24.58,36.13q-10.58-7.53-21.17-15C322.51,467.12,317.76,474.89,322.52,478.26Z"/><path class="cls-8" d="M424.52,623.47a3.83,3.83,0,0,0-2.54-4.73L356.53,599a3.83,3.83,0,0,0-4.73,2.54Q341.93,634.24,332,667a3.84,3.84,0,0,0,2.54,4.74L400,691.46a3.52,3.52,0,0,0,2.76-.24.52.52,0,0,0,.13-.06l.13-.07a3.57,3.57,0,0,0,1.72-2.18Q414.65,656.2,424.52,623.47Zm-25.94,59.62-58.17-17.57q8.77-29.09,17.56-58.17l58.18,17.56Q407.38,654,398.58,683.09Z"/><path class="cls-8" d="M393.38,665l-9.73-18.15,18.15-9.73c4.51-2.42.76-9.41-3.75-7l-18.15,9.73-9.73-18.15c-2.42-4.51-9.41-.76-7,3.75q4.88,9.06,9.73,18.15l-18.15,9.73c-4.51,2.42-.76,9.4,3.75,7l18.15-9.73q4.86,9.09,9.73,18.15C388.81,673.24,395.8,669.5,393.38,665Z"/><polygon class="cls-7" points="588.41 846.12 564.3 842.07 543.1 968.2 570.27 954.06 591.33 976.31 612.53 850.17 588.41 846.12"/><polygon class="cls-7" points="616.23 840.18 636.59 826.63 707.44 933.12 676.87 931.31 666.74 960.21 595.88 853.72 616.23 840.18"/><polygon class="cls-8" points="682.73 814.38 674.64 831.02 683.21 847.41 669.35 859.66 670.97 878.09 653.5 884.13 647.97 901.77 629.51 900.65 617.62 914.82 600.99 906.74 584.6 915.3 572.34 901.44 553.92 903.07 547.88 885.59 530.23 880.06 531.36 861.6 517.18 849.72 525.27 833.09 516.7 816.69 530.56 804.44 528.93 786.01 546.42 779.97 551.94 762.32 570.4 763.45 582.29 749.28 598.92 757.36 615.31 748.8 627.57 762.65 645.99 761.03 652.03 778.51 669.68 784.04 668.56 802.5 682.73 814.38"/><path class="cls-3" d="M662.26,818.75a63.71,63.71,0,1,1-75.6-49A63.71,63.71,0,0,1,662.26,818.75Z"/><path class="cls-8" d="M648.39,821.71a50.21,50.21,0,0,1-38.1,58.78c-26.74,6.37-52.62-12.32-58.77-38.1-6.38-26.74,12.32-52.62,38.1-58.77,26.74-6.38,52.62,12.31,58.77,38.09.67,2.81,5.06,1.89,4.39-.94a54.79,54.79,0,0,0-64.1-41.54c-29.43,5.55-46.9,35.72-41.55,64.1,5.56,29.42,35.72,46.9,64.1,41.55,29.43-5.56,46.91-35.73,41.55-64.11C652.24,817.93,647.85,818.87,648.39,821.71Z"/><polygon class="cls-11" points="571.2 399.71 621.31 433.73 579.43 441.9 571.2 399.71"/><polygon class="cls-12" points="571.2 399.71 451.14 423.12 493.09 638.29 655.03 606.73 621.31 433.73 579.43 441.9 571.2 399.71"/><rect class="cls-13" x="471.41" y="468.38" width="95.8" height="3.3" transform="translate(-80.34 108.04) rotate(-11.03)"/><rect class="cls-13" x="473.52" y="479.2" width="95.8" height="3.31" transform="translate(-82.37 108.65) rotate(-11.03)"/><rect class="cls-13" x="475.94" y="493.22" width="62.21" height="3.3" transform="translate(-85.31 106.14) rotate(-11.03)"/><path class="cls-13" d="M613.28,445a1.38,1.38,0,0,0-1.61-1.09l-34.6,6.74a1.39,1.39,0,0,0-1.09,1.62q3.38,17.3,6.74,34.6a1.41,1.41,0,0,0,1.62,1.09l34.6-6.75a1.3,1.3,0,0,0,.85-.54l0,0s0,0,0-.05a1.24,1.24,0,0,0,.19-1Zm3.78,33.77L585.16,485,579,453.08l31.89-6.22Q614,462.82,617.06,478.76Z"/><path class="cls-11" d="M607.05,455.44l-12.52,16.78-5.28-4c-2.12-1.62-4.42,1.81-2.31,3.42l6.84,5.22a2.1,2.1,0,0,0,2.87-.56l13.83-18.53C612.07,455.61,608.64,453.31,607.05,455.44Z"/><rect class="cls-13" x="481.21" y="518.64" width="95.8" height="3.3" transform="translate(-89.77 110.85) rotate(-11.03)"/><rect class="cls-13" x="483.32" y="529.45" width="95.8" height="3.31" transform="translate(-91.8 111.45) rotate(-11.03)"/><rect class="cls-13" x="485.73" y="543.48" width="62.21" height="3.3" transform="translate(-94.76 108.97) rotate(-11.03)"/><path class="cls-13" d="M623.08,495.24a1.4,1.4,0,0,0-1.62-1.09l-34.6,6.75a1.39,1.39,0,0,0-1.08,1.62q3.36,17.29,6.74,34.59a1.38,1.38,0,0,0,1.61,1.09l34.61-6.74a1.28,1.28,0,0,0,.84-.54l0,0,0,0a1.25,1.25,0,0,0,.18-1Q626.46,512.54,623.08,495.24ZM626.86,529,595,535.23q-3.11-15.94-6.22-31.89l31.9-6.22Q623.75,513.07,626.86,529Z"/><path class="cls-11" d="M616.84,505.7q-6.26,8.39-12.52,16.78l-5.27-4c-2.13-1.61-4.42,1.82-2.31,3.43l6.84,5.21a2.07,2.07,0,0,0,2.86-.56L620.27,508C621.87,505.87,618.44,503.57,616.84,505.7Z"/><rect class="cls-13" x="491" y="568.9" width="95.8" height="3.3" transform="translate(-99.21 113.65) rotate(-11.03)"/><rect class="cls-13" x="493.11" y="579.71" width="95.8" height="3.31" transform="translate(-101.24 114.25) rotate(-11.03)"/><rect class="cls-13" x="495.53" y="593.74" width="62.21" height="3.3" transform="translate(-104.2 111.77) rotate(-11.03)"/><path class="cls-13" d="M632.88,545.5a1.4,1.4,0,0,0-1.62-1.09l-34.6,6.75a1.39,1.39,0,0,0-1.09,1.61l6.75,34.6a1.39,1.39,0,0,0,1.61,1.09l34.6-6.74a1.31,1.31,0,0,0,.85-.55l0,0,0,0a1.29,1.29,0,0,0,.18-1Q636.25,562.79,632.88,545.5Zm3.77,33.78-31.89,6.21q-3.1-15.94-6.22-31.89l31.9-6.22Z"/><path class="cls-11" d="M626.64,556l-12.52,16.77-5.28-4c-2.12-1.62-4.41,1.82-2.3,3.43l6.83,5.21a2.08,2.08,0,0,0,2.87-.56l13.83-18.53C631.66,556.13,628.23,553.82,626.64,556Z"/><path class="cls-5" d="M394,198.69a5.62,5.62,0,1,1-6.54-4.53A5.62,5.62,0,0,1,394,198.69Z"/><path class="cls-5" d="M355.23,220.83a5.62,5.62,0,1,1-7.82,1.42A5.63,5.63,0,0,1,355.23,220.83Z"/><path class="cls-5" d="M341.3,263.07a5.62,5.62,0,1,1-4.52,6.54A5.62,5.62,0,0,1,341.3,263.07Z"/><path class="cls-5" d="M361.32,302.79a5.62,5.62,0,1,1,1.42,7.82A5.62,5.62,0,0,1,361.32,302.79Z"/><path class="cls-5" d="M403.56,316.72a5.62,5.62,0,1,1,6.54,4.52A5.61,5.61,0,0,1,403.56,316.72Z"/><path class="cls-5" d="M443.28,296.7a5.62,5.62,0,1,1,7.82-1.43A5.62,5.62,0,0,1,443.28,296.7Z"/><path class="cls-5" d="M457.21,254.46a5.62,5.62,0,1,1,4.52-6.54A5.62,5.62,0,0,1,457.21,254.46Z"/><path class="cls-5" d="M437.19,214.74a5.62,5.62,0,1,1-1.43-7.82A5.62,5.62,0,0,1,437.19,214.74Z"/><path class="cls-5" d="M371,267l24.75,10.81a7,7,0,0,0,7.1-1.18l42.85-44c6.35-6.52-2.69-17.58-9.12-11l-42.85,44,7.11-1.18-24.75-10.81c-8.46-3.7-13.49,9.67-5.09,13.34Z"/><rect class="cls-11" x="368.04" y="156.56" width="29.23" height="21.98" transform="translate(-23.82 71.24) rotate(-10.32)"/><path class="cls-11" d="M359.69,164.61l43.42-7.91c12.64-2.3,9.08-21.9-3.57-19.6L356.11,145c-12.64,2.3-9.07,21.91,3.58,19.61Z"/><rect class="cls-11" x="444.03" y="174.27" width="13.24" height="17.6" transform="matrix(0.57, -0.82, 0.82, 0.57, 43.67, 449.47)"/><path class="cls-11" d="M442.12,172,464,187.17c6.37,4.4,13.19-5.47,6.83-9.87L449,162.17c-6.36-4.4-13.19,5.47-6.83,9.87Z"/><rect class="cls-11" x="317.35" y="197.13" width="17.6" height="13.24" transform="translate(-31.53 345) rotate(-53.54)"/><path class="cls-11" d="M330.66,190.55q-7.91,10.68-15.8,21.38c-4.6,6.22-14.25-.91-9.65-7.13q7.91-10.7,15.8-21.38c4.6-6.23,14.25.9,9.65,7.13Z"/><path class="cls-8" d="M414.76,344a87.73,87.73,0,1,1,70.6-102A87.84,87.84,0,0,1,414.76,344ZM386.55,189a69.79,69.79,0,1,0,81.17,56.17A69.87,69.87,0,0,0,386.55,189Z"/><path class="cls-14" d="M646.34,242.37a52.1,52.1,0,1,1-68.45-27.24A52.09,52.09,0,0,1,646.34,242.37Z"/><text class="cls-15" transform="translate(595.76 302.49) rotate(-23.3)">?</text><path class="cls-8" d="M424.09-3.95a3.84,3.84,0,0,0-2.54-4.73L356.1-28.44a3.82,3.82,0,0,0-4.73,2.54q-9.89,32.71-19.76,65.44a3.83,3.83,0,0,0,2.54,4.73L399.59,64a3.47,3.47,0,0,0,2.76-.23l.13-.06.13-.08a3.52,3.52,0,0,0,1.72-2.17Q414.2,28.78,424.09-3.95ZM398.15,55.66,340,38.1l17.56-58.18L415.72-2.51Q406.93,26.58,398.15,55.66Z"/><path class="cls-8" d="M393,37.57q-4.86-9.09-9.73-18.15l18.15-9.74c4.51-2.41.76-9.4-3.75-7l-18.15,9.74q-4.87-9.07-9.73-18.16c-2.42-4.5-9.41-.76-7,3.75l9.73,18.15-18.15,9.74c-4.51,2.41-.76,9.4,3.75,7l18.15-9.73q4.86,9.07,9.73,18.15C388.38,45.82,395.37,42.08,393,37.57Z"/><path class="cls-9" d="M596.33,38.34a4.6,4.6,0,0,0-3.1-5.65L514.6,9.8A4.6,4.6,0,0,0,509,12.9L486.07,91.52a4.6,4.6,0,0,0,3.09,5.65l78.64,22.89a4.21,4.21,0,0,0,3.3-.3,1.19,1.19,0,0,0,.15-.09,1.19,1.19,0,0,0,.15-.09,4.19,4.19,0,0,0,2-2.62ZM566,110.06l-69.9-20.35q10.19-35,20.36-69.9l69.89,20.35Q576.15,75.11,566,110.06Z"/><path class="cls-9" d="M512.31,56.08q6.44,13.71,12.86,27.44c1.09,2.31,4.07,2.84,6.18,1.8l43.52-21.45c5.28-2.6.88-10.57-4.37-8L531.3,75.21q-5.5-11.77-11-23.51C517.79,46.37,509.83,50.79,512.31,56.08Z"/><path class="cls-14" d="M873.29,914.83a7.35,7.35,0,0,1-3.77,9.65l-32.8,14.38a7.35,7.35,0,0,1-9.65-3.77l-3.2-7.31a7.35,7.35,0,0,1,3.77-9.65l32.8-14.38a7.35,7.35,0,0,1,9.65,3.77Z"/><rect class="cls-8" x="787.97" y="768.07" width="50.4" height="144.88" transform="translate(-268.98 397.07) rotate(-23.66)"/><polygon class="cls-16" points="771.22 744.77 807.18 764.04 761.02 784.28 771.22 744.77"/><polygon class="cls-17" points="783.98 751.61 771.22 744.77 767.6 758.79 783.98 751.61"/><rect class="cls-12" x="789.37" y="774.75" width="17.09" height="144.88" transform="translate(-272.96 391.52) rotate(-23.67)"/><rect class="cls-12" x="819.94" y="761.36" width="17.09" height="144.88" transform="translate(-264.98 402.57) rotate(-23.66)"/><rect class="cls-18" x="819.56" y="906.32" width="50.46" height="12.55" transform="translate(-295.23 415.74) rotate(-23.66)"/><path class="cls-5" d="M706.29,1018.49,642.45,1035a22.46,22.46,0,0,0-16.14,27.37l9.37,36.26a22.47,22.47,0,0,0,27.37,16.14l14.5-3.75,6.33,24.47,22.68-32,20.33-5.25A22.47,22.47,0,0,0,743,1070.88l-9.36-36.26A22.47,22.47,0,0,0,706.29,1018.49Z"/><path class="cls-3" d="M657.09,1079.07l25.53,13.64c2.15,1.15,4.74-.15,5.75-2.15l21-41.3c2.55-5-5.38-8.58-7.91-3.6l-18.94,37.19-21.87-11.69C655.74,1068.52,652.17,1076.45,657.09,1079.07Z"/><path class="cls-14" d="M909.54,1054.35a52.1,52.1,0,1,1-53.85-50.28A52.1,52.1,0,0,1,909.54,1054.35Z"/><text class="cls-19" transform="translate(840.48 1091.96) rotate(-1.96)">?</text><rect class="cls-5" x="673.74" y="-18.13" width="182.94" height="246.73" transform="translate(-5.18 161.09) rotate(-11.98)"/><rect class="cls-3" x="687.66" y="-9.67" width="154.38" height="226.5" transform="translate(-4.85 160.97) rotate(-11.98)"/><rect class="cls-6" x="736.63" y="18.66" width="80.06" height="5.89" transform="translate(12.43 161.65) rotate(-11.98)"/><rect class="cls-6" x="744.79" y="57.08" width="80.06" height="5.89" transform="translate(4.63 164.15) rotate(-11.98)"/><rect class="cls-6" x="752.94" y="95.5" width="80.06" height="5.89" transform="translate(-3.17 166.7) rotate(-11.98)"/><rect class="cls-6" x="761.09" y="133.92" width="80.06" height="5.89" transform="translate(-10.96 169.24) rotate(-11.98)"/><rect class="cls-6" x="769.24" y="172.34" width="80.06" height="5.89" transform="translate(-18.76 171.77) rotate(-11.98)"/><path class="cls-6" d="M720.67,52.5,685.56,60l-7.44-35.1,35.1-7.45Zm-31,1.15,24.7-5.24-5.24-24.7L684.42,29Z"/><polygon class="cls-7" points="702.22 52.16 688.58 42.85 691.58 38.46 700.71 44.69 721.54 12.37 726.01 15.25 702.22 52.16"/><path class="cls-6" d="M731.7,104.5,696.6,112l-7.45-35.1,35.1-7.45Zm-31,1.14,24.71-5.24-5.25-24.7-24.7,5.24Z"/><polygon class="cls-7" points="713.25 104.16 699.61 94.85 702.6 90.45 711.74 96.69 732.58 64.36 737.04 67.25 713.25 104.16"/><path class="cls-6" d="M742.73,156.5l-35.1,7.44-7.45-35.09,35.1-7.45Zm-31,1.14,24.7-5.24-5.23-24.7-24.7,5.24Z"/><polygon class="cls-7" points="724.28 156.15 710.64 146.84 713.64 142.46 722.77 148.69 743.6 116.36 748.07 119.24 724.28 156.15"/><path class="cls-6" d="M753.76,208.5l-35.1,7.44-7.45-35.1,35.1-7.44Zm-31,1.14,24.7-5.24-5.24-24.7-24.7,5.24Z"/><polygon class="cls-7" points="735.31 208.15 721.67 198.84 724.67 194.45 733.8 200.69 754.63 168.36 759.1 171.24 735.31 208.15"/><path class="cls-8" d="M767.23-24.74a14.49,14.49,0,0,1-14.89-5,15.23,15.23,0,0,0-.3-4.07,15.45,15.45,0,0,0-18.33-11.92A15.46,15.46,0,0,0,721.8-27.41a15.33,15.33,0,0,0,1.38,3.85A14.48,14.48,0,0,1,711.6-12.94c-11.77,2.5-17.15,9-15.86,15.13l46.07-9.77h0l46.06-9.77C786.57-23.47,779-27.24,767.23-24.74ZM737.86-26.2a5.73,5.73,0,0,1-6.78-4.41,5.72,5.72,0,0,1,4.4-6.78A5.72,5.72,0,0,1,742.26-33,5.72,5.72,0,0,1,737.86-26.2Z"/><path class="cls-8" d="M1061,1154.72a47.56,47.56,0,1,0-86.47,6.06c4.2,13.91,1,30.65,1,30.65l18.68,6.88,18.67,6.89s8.46-14.79,20.68-22.65A47.36,47.36,0,0,0,1061,1154.72Z"/><path class="cls-20" d="M1003.09,1136q-2.83,15.6-5.35,31.26c-1.1,6.84-2.17,13.68-2.91,20.56-.18,1.64-1.18,5.63.42,6.92,2.5,2,27.8-45,30.64-50.34.65-1.21-1.11-2.49-1.77-1.26q-6,11.14-12.08,22.19c-4.78,8.64-9.35,20.48-16.47,27.51,1-1,1.07.93,1.13-1.21,0-.87.11-1.73.18-2.59.22-2.45.55-4.89.88-7.32.86-6.47,1.91-12.91,3-19.35q2.14-13.11,4.53-26.19c.25-1.37-1.92-1.55-2.16-.18Z"/><path class="cls-20" d="M994.35,1145l34,12.53a1.08,1.08,0,0,0,.75-2l-34-12.54a1.09,1.09,0,0,0-.75,2Z"/><path class="cls-9" d="M1003.71,724.61a4.59,4.59,0,0,0-4-5.06l-81.32-9.75a4.61,4.61,0,0,0-5.06,4l-9.75,81.31a4.59,4.59,0,0,0,4,5.06l81.31,9.75a4.21,4.21,0,0,0,3.21-.84l.14-.1c0-.05.09-.07.13-.12a4.2,4.2,0,0,0,1.58-2.92Zm-18.24,75.72-72.28-8.67q4.32-36.15,8.66-72.28l72.28,8.67Q989.81,764.19,985.47,800.33Z"/><path class="cls-9" d="M923.72,755.83q8.56,12.49,17.16,25c1.45,2.1,4.48,2.13,6.39.76l39.44-28.27c4.78-3.42-.86-10.56-5.62-7.15l-35.52,25.46-14.7-21.4C927.54,745.37,920.4,751,923.72,755.83Z"/><polygon class="cls-11" points="1161.22 839.29 1188.44 893.4 1147.88 880.15 1161.22 839.29"/><polygon class="cls-12" points="1161.22 839.29 1044.94 801.32 976.88 1009.71 1133.72 1060.94 1188.44 893.4 1147.88 880.15 1161.22 839.29"/><rect class="cls-13" x="1080.01" y="827.58" width="3.3" height="95.8" transform="matrix(0.31, -0.95, 0.95, 0.31, -86.36, 1631.91)"/><rect class="cls-13" x="1076.59" y="838.05" width="3.31" height="95.8" transform="translate(-98.68 1635.87) rotate(-71.91)"/><rect class="cls-13" x="1057.2" y="860.11" width="3.3" height="62.21" transform="translate(-117.04 1621.07) rotate(-71.91)"/><path class="cls-13" d="M1176,899.32a1.39,1.39,0,0,0-.88-1.73l-33.51-11a1.39,1.39,0,0,0-1.74.88q-5.47,16.76-10.94,33.51a1.39,1.39,0,0,0,.88,1.74l33.51,10.94a1.26,1.26,0,0,0,1-.06l0,0,0,0a1.32,1.32,0,0,0,.65-.78Q1170.47,916.08,1176,899.32Zm-13.13,31.35-30.9-10.09q5.05-15.45,10.09-30.89l30.89,10.09Z"/><path class="cls-11" d="M1165.42,905.42,1146.31,914q-1.32-3-2.65-6.08c-1.07-2.45-4.75-.57-3.68,1.87,1.14,2.62,2.29,5.25,3.43,7.88a2.08,2.08,0,0,0,2.78.9l21.1-9.45C1169.72,908,1167.84,904.33,1165.42,905.42Z"/><rect class="cls-13" x="1064.12" y="876.25" width="3.3" height="95.8" transform="translate(-143.58 1650.38) rotate(-71.91)"/><rect class="cls-13" x="1060.69" y="886.73" width="3.31" height="95.8" transform="translate(-155.91 1654.33) rotate(-71.91)"/><rect class="cls-13" x="1041.31" y="908.78" width="3.3" height="62.2" transform="translate(-174.27 1639.52) rotate(-71.91)"/><path class="cls-13" d="M1160.05,948a1.38,1.38,0,0,0-.88-1.74l-33.51-11a1.38,1.38,0,0,0-1.73.89l-11,33.51a1.39,1.39,0,0,0,.88,1.73l33.51,10.95a1.33,1.33,0,0,0,1-.06l0,0,0,0a1.29,1.29,0,0,0,.64-.77Q1154.59,964.74,1160.05,948Zm-13.13,31.34L1116,969.25q5-15.43,10.09-30.89L1157,948.45Q1152,963.9,1146.92,979.34Z"/><path class="cls-11" d="M1149.52,954.1l-19.1,8.56-2.66-6.08c-1.06-2.45-4.74-.57-3.68,1.87l3.44,7.88a2.07,2.07,0,0,0,2.77.91l21.1-9.46C1153.83,956.69,1152,953,1149.52,954.1Z"/><rect class="cls-13" x="1048.22" y="924.93" width="3.3" height="95.8" transform="translate(-200.82 1668.81) rotate(-71.91)"/><rect class="cls-13" x="1044.8" y="935.4" width="3.31" height="95.8" transform="translate(-213.15 1672.76) rotate(-71.91)"/><rect class="cls-13" x="1025.41" y="957.46" width="3.3" height="62.21" transform="translate(-231.5 1657.98) rotate(-71.91)"/><path class="cls-13" d="M1144.16,996.67a1.39,1.39,0,0,0-.89-1.74L1109.77,984a1.39,1.39,0,0,0-1.74.88l-11,33.51a1.38,1.38,0,0,0,.89,1.73l33.51,10.95a1.26,1.26,0,0,0,1-.06l0,0,0,0a1.26,1.26,0,0,0,.64-.77ZM1131,1028l-30.89-10.09q5-15.45,10.09-30.9l30.89,10.09Q1136.07,1012.57,1131,1028Z"/><path class="cls-11" d="M1133.62,1002.77l-19.1,8.57-2.65-6.09c-1.07-2.44-4.75-.56-3.69,1.87,1.15,2.63,2.29,5.26,3.44,7.88a2.09,2.09,0,0,0,2.78.91l21.09-9.46C1137.93,1005.36,1136.05,1001.68,1133.62,1002.77Z"/><path class="cls-8" d="M1169.9,24.57a3.83,3.83,0,0,0-4.78-2.45L1100,43a3.82,3.82,0,0,0-2.45,4.78q10.46,32.54,20.92,65.08a3.83,3.83,0,0,0,4.78,2.45l65.08-20.92a3.51,3.51,0,0,0,2.14-1.76.75.75,0,0,1,.07-.12.84.84,0,0,1,.06-.14,3.54,3.54,0,0,0,.18-2.76Zm12.53,63.79L1124.58,107Q1115.26,78,1106,49.11l57.85-18.6Z"/><path class="cls-8" d="M1167.86,76.42,1149.54,67q4.71-9.16,9.41-18.32c2.34-4.55-4.72-8.18-7-3.63l-9.41,18.33L1124.17,54c-4.55-2.34-8.18,4.71-3.63,7l18.32,9.41-9.4,18.32c-2.34,4.55,4.71,8.17,7,3.62q4.71-9.15,9.41-18.32l18.32,9.41C1168.79,85.81,1172.42,78.76,1167.86,76.42Z"/><path class="cls-14" d="M1240.5,747a52.1,52.1,0,1,1-53.84-50.28A52.1,52.1,0,0,1,1240.5,747Z"/><text class="cls-19" transform="translate(1171.45 784.62) rotate(-1.96)">?</text><path class="cls-9" d="M1353.11,1081.29a70.66,70.66,0,1,1-37.07-92.8A70.68,70.68,0,0,1,1353.11,1081.29Z"/><text class="cls-10" transform="translate(1246.64 1087.6) rotate(23.23)">?</text><path class="cls-5" d="M1011,155.5a5,5,0,1,1-3.94-5.8A5,5,0,0,1,1011,155.5Z"/><path class="cls-5" d="M972,161.38a5,5,0,1,1-6.89-1.32A5,5,0,0,1,972,161.38Z"/><path class="cls-5" d="M947,191.73a5,5,0,1,1-5.81,3.94A5,5,0,0,1,947,191.73Z"/><path class="cls-5" d="M950.87,230.82a5,5,0,1,1-1.31,6.89A5,5,0,0,1,950.87,230.82Z"/><path class="cls-5" d="M981.23,255.74a5,5,0,1,1,3.94,5.8A5,5,0,0,1,981.23,255.74Z"/><path class="cls-5" d="M1020.31,251.9a5,5,0,1,1,6.89,1.32A5,5,0,0,1,1020.31,251.9Z"/><path class="cls-5" d="M1045.23,221.55a5,5,0,1,1,5.81-3.94A5,5,0,0,1,1045.23,221.55Z"/><path class="cls-5" d="M1041.39,182.47a5,5,0,1,1,1.32-6.9A5,5,0,0,1,1041.39,182.47Z"/><path class="cls-5" d="M970.23,204.38l16.93,16.78a6.15,6.15,0,0,0,6.23,1.29l49.29-22.57c7.3-3.35,3.38-15.34-4-11.95l-49.29,22.58,6.23,1.29L978.66,195c-5.79-5.74-14.18,3.67-8.43,9.37Z"/><rect class="cls-11" x="1001.8" y="113.34" width="19.41" height="25.81" transform="matrix(0.19, -0.98, 0.98, 0.19, 697.6, 1096.05)"/><path class="cls-11" d="M993.53,116.5l38.28,7.32c11.14,2.13,14.45-15.15,3.3-17.28l-38.28-7.32c-11.14-2.13-14.44,15.15-3.3,17.28Z"/><rect class="cls-11" x="1056.72" y="152.91" width="11.69" height="15.54" transform="translate(93.16 624.48) rotate(-34.17)"/><path class="cls-11" d="M1059.05,148.88l13.18,19.41c3.84,5.66,12.61-.3,8.77-5.95q-6.59-9.71-13.18-19.42c-3.84-5.65-12.61.3-8.77,6Z"/><rect class="cls-11" x="945.69" y="132.21" width="15.54" height="11.69" transform="translate(74.46 532.4) rotate(-32.4)"/><path class="cls-11" d="M961.37,128.62,941.55,141.2c-5.77,3.66-11.45-5.29-5.68-8.95l19.82-12.57c5.77-3.67,11.45,5.28,5.68,8.94Z"/><path class="cls-8" d="M981.77,281.74a77.45,77.45,0,1,1,90.63-61.53A77.54,77.54,0,0,1,981.77,281.74Zm26.12-136.6a61.62,61.62,0,1,0,48.95,72.1A61.69,61.69,0,0,0,1007.89,145.14Z"/><rect class="cls-5" x="1561.38" y="938.91" width="182.94" height="246.73" transform="translate(-310.59 1134.77) rotate(-34.84)"/><rect class="cls-3" x="1574.69" y="947.64" width="154.38" height="226.5" transform="translate(-309.97 1133.92) rotate(-34.84)"/><rect class="cls-6" x="1590.88" y="977.81" width="80.06" height="5.89" transform="translate(-267.95 1107.58) rotate(-34.84)"/><rect class="cls-6" x="1613.33" y="1010.05" width="80.06" height="5.89" transform="matrix(0.82, -0.57, 0.57, 0.82, -282.35, 1126.12)"/><rect class="cls-6" x="1635.76" y="1042.28" width="80.06" height="5.89" transform="translate(-296.73 1144.81) rotate(-34.84)"/><rect class="cls-6" x="1658.2" y="1074.51" width="80.06" height="5.89" transform="translate(-311.12 1163.46) rotate(-34.84)"/><rect class="cls-6" x="1680.64" y="1106.75" width="80.06" height="5.89" transform="translate(-325.52 1182.08) rotate(-34.84)"/><path class="cls-6" d="M1591.32,1031l-29.45,20.5-20.5-29.45,29.45-20.5Zm-28.12,13.1,20.72-14.43-14.42-20.72-20.73,14.42Z"/><polygon class="cls-7" points="1574.19 1037.84 1558.01 1034.56 1559.06 1029.35 1569.9 1031.55 1576.54 993.66 1581.77 994.58 1574.19 1037.84"/><path class="cls-6" d="M1621.69,1074.61l-29.45,20.5-20.5-29.44,29.46-20.51Zm-28.12,13.1,20.72-14.42-14.42-20.72L1579.14,1067Z"/><polygon class="cls-7" points="1604.56 1081.47 1588.37 1078.19 1589.43 1072.98 1600.27 1075.17 1606.9 1037.29 1612.14 1038.21 1604.56 1081.47"/><path class="cls-6" d="M1652.06,1118.24l-29.45,20.5-20.5-29.45,29.45-20.5Zm-28.12,13.1,20.72-14.43-14.42-20.72-20.73,14.43Z"/><polygon class="cls-7" points="1634.92 1125.09 1618.74 1121.81 1619.8 1116.61 1630.64 1118.8 1637.27 1080.91 1642.51 1081.83 1634.92 1125.09"/><path class="cls-6" d="M1682.43,1161.87l-29.45,20.5-20.5-29.45,29.45-20.5Zm-28.12,13.1,20.72-14.43-14.43-20.72-20.72,14.42Z"/><polygon class="cls-7" points="1665.29 1168.72 1649.11 1165.44 1650.16 1160.23 1661 1162.43 1667.64 1124.54 1672.88 1125.46 1665.29 1168.72"/><path class="cls-8" d="M1604.22,941.72a14.49,14.49,0,0,1-15.67,1.17,15.46,15.46,0,1,0-24.46,17,14.48,14.48,0,0,1-6.55,14.28c-9.87,6.88-12.3,15-8.73,20.11l38.65-26.9h0l38.64-26.91C1622.53,935.38,1614.09,934.84,1604.22,941.72Zm-27.64,10.07a5.72,5.72,0,1,1,1.43-8A5.71,5.71,0,0,1,1576.58,951.79Z"/><path class="cls-14" d="M1515.56,1163.18a52.1,52.1,0,1,1-53.84-50.28A52.1,52.1,0,0,1,1515.56,1163.18Z"/><text class="cls-19" transform="translate(1446.51 1200.79) rotate(-1.96)">?</text><polygon class="cls-7" points="1388.33 819.08 1368.66 804.56 1292.67 907.44 1323.3 907.13 1332 936.5 1408 833.62 1388.33 819.08"/><polygon class="cls-7" points="1415.82 826.38 1440.1 823.52 1455.09 950.54 1428.64 935.09 1406.53 956.27 1391.55 829.25 1415.82 826.38"/><polygon class="cls-8" points="1486.79 833.48 1472.06 844.65 1472.27 863.14 1454.37 867.8 1447.48 884.96 1429.16 882.43 1416.24 895.67 1400.29 886.31 1383.28 893.57 1372.11 878.83 1353.61 879.05 1348.96 861.15 1331.79 854.26 1334.32 835.93 1321.08 823.02 1330.44 807.07 1323.18 790.06 1337.92 778.89 1337.7 760.39 1355.6 755.74 1362.49 738.57 1380.82 741.1 1393.73 727.86 1409.68 737.22 1426.69 729.96 1437.87 744.7 1456.36 744.48 1461.02 762.38 1478.18 769.27 1475.65 787.6 1488.89 800.51 1479.54 816.47 1486.79 833.48"/><path class="cls-3" d="M1466.56,828.1a63.7,63.7,0,1,1-45.24-77.9A63.71,63.71,0,0,1,1466.56,828.1Z"/><path class="cls-8" d="M1452.86,824.47a50.23,50.23,0,0,1-60.58,35.17c-26.73-6.42-41.35-34.81-35.16-60.58,6.41-26.73,34.8-41.35,60.57-35.16,26.73,6.41,41.36,34.8,35.17,60.57-.68,2.81,3.66,4,4.34,1.15a54.81,54.81,0,0,0-38.36-66.06c-28.75-8.37-58,10.63-66.06,38.35-8.37,28.76,10.62,58,38.35,66.06,28.76,8.37,58-10.62,66.07-38.35C1458,822.84,1453.66,821.69,1452.86,824.47Z"/><polygon class="cls-11" points="1767.86 481.26 1788.3 538.27 1749.65 520.19 1767.86 481.26"/><polygon class="cls-12" points="1767.86 481.26 1657.06 429.44 1564.17 628.01 1713.62 697.92 1788.3 538.27 1749.65 520.19 1767.86 481.26"/><rect class="cls-13" x="1682.84" y="459.61" width="3.31" height="95.8" transform="translate(511.04 1818.27) rotate(-64.93)"/><rect class="cls-13" x="1678.18" y="469.59" width="3.31" height="95.8" transform="translate(499.33 1819.82) rotate(-64.93)"/><rect class="cls-13" x="1658.29" y="489.25" width="3.3" height="62.21" transform="translate(485.3 1803.47) rotate(-64.93)"/><path class="cls-13" d="M1775.19,542.64a1.4,1.4,0,0,0-.67-1.83l-31.93-14.94a1.39,1.39,0,0,0-1.83.66l-14.94,31.93a1.41,1.41,0,0,0,.67,1.84l31.93,14.93a1.26,1.26,0,0,0,1,.06h0l0,0a1.28,1.28,0,0,0,.73-.69Zm-16.85,29.51-29.44-13.77L1742.67,529l29.44,13.77Z"/><path class="cls-11" d="M1764,547.41l-20,6.18-1.89-6.36c-.76-2.56-4.64-1.14-3.88,1.41.82,2.75,1.63,5.5,2.45,8.24a2.08,2.08,0,0,0,2.65,1.24l22.09-6.82C1768,550.51,1766.53,546.63,1764,547.41Z"/><rect class="cls-13" x="1661.15" y="505.99" width="3.31" height="95.8" transform="translate(456.56 1825.38) rotate(-64.93)"/><rect class="cls-13" x="1656.48" y="515.97" width="3.3" height="95.8" transform="translate(444.82 1826.89) rotate(-64.93)"/><rect class="cls-13" x="1636.6" y="535.63" width="3.31" height="62.21" transform="translate(430.84 1810.6) rotate(-64.93)"/><path class="cls-13" d="M1753.49,589a1.38,1.38,0,0,0-.66-1.83l-31.93-14.94a1.4,1.4,0,0,0-1.84.66q-7.47,16-14.93,31.93a1.38,1.38,0,0,0,.66,1.83l31.93,14.94a1.29,1.29,0,0,0,1,.06h0l0,0a1.26,1.26,0,0,0,.73-.69Zm-16.85,29.51-29.43-13.77L1721,575.33l29.43,13.77Z"/><path class="cls-11" d="M1742.29,593.79l-20,6.18-1.89-6.36c-.76-2.56-4.64-1.14-3.89,1.41l2.46,8.24a2.08,2.08,0,0,0,2.64,1.24l22.09-6.82C1746.25,596.88,1744.83,593,1742.29,593.79Z"/><rect class="cls-13" x="1639.45" y="552.37" width="3.3" height="95.8" transform="translate(402.09 1832.51) rotate(-64.93)"/><rect class="cls-13" x="1634.78" y="562.35" width="3.31" height="95.8" transform="translate(390.3 1833.97) rotate(-64.93)"/><rect class="cls-13" x="1614.9" y="582.01" width="3.3" height="62.2" transform="translate(376.25 1817.61) rotate(-64.93)"/><path class="cls-13" d="M1731.8,635.4a1.4,1.4,0,0,0-.67-1.83l-31.93-14.94a1.39,1.39,0,0,0-1.83.66l-14.94,31.94a1.4,1.4,0,0,0,.67,1.83L1715,668a1.26,1.26,0,0,0,1,.06h0l.05,0a1.32,1.32,0,0,0,.73-.69ZM1715,664.91l-29.44-13.76,13.77-29.45,29.44,13.78Z"/><path class="cls-11" d="M1720.6,640.17l-20,6.18L1698.7,640c-.76-2.56-4.64-1.14-3.88,1.41.82,2.74,1.63,5.5,2.45,8.24a2.09,2.09,0,0,0,2.65,1.24l22.09-6.82C1724.56,643.27,1723.14,639.39,1720.6,640.17Z"/><path class="cls-14" d="M1187.32,364.86a52.09,52.09,0,1,1-40.26-61.7A52.09,52.09,0,0,1,1187.32,364.86Z"/><text class="cls-21" transform="translate(1111.28 384.99) rotate(11.87)">?</text><path class="cls-8" d="M1475.64,580.7a3.82,3.82,0,0,0-2.53-4.73l-65.45-19.76a3.82,3.82,0,0,0-4.73,2.54q-9.89,32.71-19.76,65.44a3.83,3.83,0,0,0,2.53,4.73l65.45,19.76a3.48,3.48,0,0,0,2.76-.23l.13-.06.13-.08a3.47,3.47,0,0,0,1.71-2.17Q1465.77,613.43,1475.64,580.7Zm-25.93,59.61-58.18-17.56q8.79-29.09,17.57-58.18l58.17,17.57Q1458.5,611.22,1449.71,640.31Z"/><path class="cls-8" d="M1444.51,622.22l-9.73-18.15,18.14-9.74c4.51-2.41.76-9.4-3.74-7L1431,597.08q-4.86-9.08-9.73-18.16c-2.41-4.5-9.4-.76-7,3.75q4.88,9.08,9.73,18.15l-18.15,9.74c-4.5,2.41-.75,9.4,3.75,7l18.15-9.73,9.74,18.15C1439.93,630.47,1446.92,626.73,1444.51,622.22Z"/><path class="cls-9" d="M1443.52,348.43a4.59,4.59,0,0,0-3.09-5.64l-78.64-22.9a4.6,4.6,0,0,0-5.64,3.1l-22.89,78.63a4.59,4.59,0,0,0,3.09,5.64L1415,430.15a4.21,4.21,0,0,0,3.3-.3l.15-.08a.83.83,0,0,1,.16-.09,4.26,4.26,0,0,0,2-2.63Zm-30.36,71.72-69.89-20.35q10.17-35,20.35-69.9l69.89,20.35Q1423.34,385.2,1413.16,420.15Z"/><path class="cls-9" d="M1359.5,366.17q6.43,13.72,12.86,27.44c1.09,2.32,4.07,2.84,6.18,1.8L1422.06,374c5.28-2.6.88-10.57-4.37-8l-39.2,19.32-11-23.51C1365,356.47,1357,360.88,1359.5,366.17Z"/><rect class="cls-5" x="1494.91" y="-248.36" width="182.94" height="246.73" transform="translate(60.48 326.51) rotate(-11.98)"/><rect class="cls-3" x="1508.83" y="-239.9" width="154.38" height="226.5" transform="translate(60.8 326.36) rotate(-11.98)"/><path class="cls-5" d="M1371.38,13.29l-80.14-27.46a28.85,28.85,0,0,0-36.66,18L1239,49.3a28.88,28.88,0,0,0,18,36.67l18.2,6.24-10.53,30.72,47-18.25,25.51,8.75a28.87,28.87,0,0,0,36.67-18L1389.33,50A28.87,28.87,0,0,0,1371.38,13.29Z"/><path class="cls-3" d="M1275.76,43.48l17.74,32.69c1.5,2.76,5.19,3.19,7.7,1.76L1353,48.51c6.27-3.57.3-13-5.94-9.46l-46.62,26.5-15.19-28C1281.77,31.2,1272.34,37.19,1275.76,43.48Z"/><polygon class="cls-22" points="1537.43 46.34 1438.31 83.34 1541.49 105.35 1640.68 69.42 1537.43 46.34"/><polygon class="cls-17" points="1605.49 119.06 1479.96 127.69 1476.73 80.7 1602.26 72.06 1605.49 119.06"/><path class="cls-23" d="M1613.74,64.23q1.24,18,2.48,36c.25,3.65,5.91,3.26,5.66-.39q-1.25-18-2.48-36c-.25-3.65-5.91-3.26-5.66.39Z"/><path class="cls-23" d="M1624.68,101.75a5.5,5.5,0,1,1-5.87-5.11A5.51,5.51,0,0,1,1624.68,101.75Z"/><rect class="cls-23" x="1617.66" y="105.05" width="1.57" height="23.09" transform="translate(-4.19 111.97) rotate(-3.96)"/><rect class="cls-23" x="1620.8" y="104.83" width="1.57" height="23.09" transform="translate(-4.16 109.6) rotate(-3.87)"/><polygon class="cls-7" points="1717.82 202.42 1697.42 188.94 1626.89 295.65 1657.46 293.74 1667.68 322.61 1738.21 215.91 1717.82 202.42"/><polygon class="cls-7" points="1745.65 208.28 1769.75 204.15 1791.33 330.23 1764.12 316.17 1743.14 338.48 1721.56 212.4 1745.65 208.28"/><polygon class="cls-8" points="1816.89 211.66 1802.76 223.59 1803.94 242.04 1786.31 247.63 1780.32 265.13 1761.89 263.56 1749.68 277.45 1733.26 268.94 1716.65 277.07 1704.73 262.93 1686.27 264.11 1680.69 246.48 1663.19 240.49 1664.76 222.06 1650.87 209.86 1659.38 193.44 1651.24 176.83 1665.38 164.91 1664.2 146.44 1681.83 140.87 1687.82 123.36 1706.25 124.93 1718.46 111.04 1734.88 119.56 1751.49 111.42 1763.41 125.56 1781.87 124.38 1787.45 142.01 1804.95 148 1803.38 166.43 1817.28 178.63 1808.76 195.06 1816.89 211.66"/><path class="cls-3" d="M1796.41,207.35a63.7,63.7,0,1,1-49.23-75.44A63.71,63.71,0,0,1,1796.41,207.35Z"/><path class="cls-8" d="M1782.54,204.44a50.22,50.22,0,0,1-58.66,38.28c-27-5-43.11-32.61-38.28-58.67,5-27,32.6-43.1,58.66-38.27,27,5,43.11,32.6,38.28,58.66-.53,2.84,3.86,3.77,4.39.92a54.81,54.81,0,0,0-41.75-64c-29.15-6.86-57.36,13.63-64,41.74-6.85,29.15,13.63,57.36,41.74,64,29.15,6.85,57.36-13.64,64-41.75C1787.59,202.54,1783.2,201.62,1782.54,204.44Z"/><path class="cls-14" d="M1361.13,206.1a7.35,7.35,0,0,1,5.7,8.65l-7.2,35.08a7.33,7.33,0,0,1-8.64,5.7l-7.83-1.6a7.36,7.36,0,0,1-5.7-8.65l7.2-35.08a7.34,7.34,0,0,1,8.65-5.7Z"/><rect class="cls-8" x="1240.53" y="139.84" width="50.4" height="144.88" transform="translate(803.31 1409.49) rotate(-78.4)"/><polygon class="cls-16" points="1163.34 191.27 1199.84 173.03 1189.71 222.41 1163.34 191.27"/><polygon class="cls-17" points="1176.3 184.8 1163.34 191.27 1172.69 202.32 1176.3 184.8"/><rect class="cls-12" x="1253.84" y="156.16" width="17.09" height="144.88" transform="translate(784.83 1419.32) rotate(-78.41)"/><rect class="cls-12" x="1260.55" y="123.47" width="17.09" height="144.88" transform="translate(821.94 1399.67) rotate(-78.4)"/><rect class="cls-18" x="1317.62" y="221.8" width="50.46" height="12.55" transform="translate(849.39 1497.63) rotate(-78.4)"/><path class="cls-14" d="M1584.7,452.81a52.1,52.1,0,1,1-53.85-50.29A52.1,52.1,0,0,1,1584.7,452.81Z"/><text class="cls-19" transform="translate(1515.64 490.41) rotate(-1.96)">?</text><path class="cls-8" d="M1668.31,769.18a47.56,47.56,0,1,0-85.84,12.07c5.16,13.59,3.17,30.5,3.17,30.5l19.11,5.57,19.11,5.57s7.4-15.34,19.05-24A47.41,47.41,0,0,0,1668.31,769.18Z"/><path class="cls-9" d="M1632.33,831a5,5,0,0,1-6.17,3.38l-48.62-14.16a5,5,0,0,1-3.39-6.17l.43-1.46a5,5,0,0,1,6.17-3.39l48.62,14.16a5,5,0,0,1,3.39,6.17Z"/><path class="cls-9" d="M1629.13,842a5,5,0,0,1-6.18,3.38l-48.63-14.16a5,5,0,0,1-3.38-6.17l.42-1.46a5,5,0,0,1,6.18-3.39l48.62,14.16a5,5,0,0,1,3.39,6.18Z"/><path class="cls-9" d="M1625.92,853a5,5,0,0,1-6.18,3.39l-48.62-14.16a5,5,0,0,1-3.39-6.18l.42-1.46a5,5,0,0,1,6.17-3.39L1623,845.38a5,5,0,0,1,3.39,6.18Z"/><path class="cls-20" d="M1609.21,754.58q-1.73,15.76-3.15,31.57c-.62,6.89-1.21,13.79-1.47,20.7-.06,1.65-.78,5.7.91,6.88,2.63,1.85,24.59-46.86,27-52.35.57-1.26-1.27-2.41-1.84-1.14q-5.16,11.53-10.51,23c-4.17,8.95-7.89,21.08-14.51,28.59.93-1.06,1.13.85,1-1.29,0-.86,0-1.73,0-2.59,0-2.46.2-4.92.36-7.37.41-6.51,1-13,1.61-19.5q1.21-13.23,2.68-26.44c.15-1.39-2-1.42-2.17,0Z"/><path class="cls-20" d="M1601.13,764.09l34.77,10.13a1.08,1.08,0,0,0,.61-2.08L1601.73,762a1.08,1.08,0,0,0-.6,2.08Z"/><path class="cls-8" d="M1557,208.27a47.56,47.56,0,1,0-66.75,55.3c11.51,8.85,18.69,24.31,18.69,24.31l19.19-5.29,19.19-5.28s-1.74-16.94,3.62-30.45A47.42,47.42,0,0,0,1557,208.27Z"/><path class="cls-9" d="M1558.81,279.75a5,5,0,0,1-3.48,6.12l-48.83,13.45a5,5,0,0,1-6.12-3.48l-.41-1.47a5,5,0,0,1,3.48-6.12l48.84-13.44a5,5,0,0,1,6.11,3.47Z"/><path class="cls-9" d="M1561.86,290.82a5,5,0,0,1-3.48,6.12l-48.83,13.45a5,5,0,0,1-6.12-3.48l-.41-1.47a5,5,0,0,1,3.48-6.12l48.83-13.45a5,5,0,0,1,6.12,3.48Z"/><path class="cls-9" d="M1564.91,301.89a5,5,0,0,1-3.48,6.12l-48.83,13.44a5,5,0,0,1-6.13-3.47l-.4-1.47a5,5,0,0,1,3.48-6.12l48.83-13.45a5,5,0,0,1,6.12,3.48Z"/><path class="cls-20" d="M1499.06,226.83q6.78,14.34,13.87,28.53c3.08,6.19,6.2,12.38,9.6,18.4.81,1.44,2.32,5.27,4.38,5.38,3.22.19-3.64-52.79-4.43-58.76-.18-1.36-2.34-1.38-2.16,0q1.65,12.52,3.1,25.08c1.14,9.81,4.34,22.09,2.64,32,.24-1.39,1.42.14.21-1.64-.48-.71-.91-1.47-1.35-2.21-1.25-2.12-2.41-4.29-3.56-6.46-3.06-5.76-6-11.61-8.86-17.45q-5.89-11.91-11.58-23.92c-.6-1.27-2.46-.15-1.86,1.1Z"/><path class="cls-20" d="M1497.16,239.17l34.92-9.61a1.08,1.08,0,0,0-.57-2.09l-34.93,9.61a1.09,1.09,0,0,0,.58,2.09Z"/><path class="cls-14" d="M265,76a52.1,52.1,0,1,1-68.46-27.24A52.1,52.1,0,0,1,265,76Z"/><text class="cls-15" transform="translate(214.46 136.14) rotate(-23.3)">?</text><path class="cls-5" d="M218.09,273.16l-84.21,9.22a28.87,28.87,0,0,0-25.55,31.84l5.23,47.83a28.88,28.88,0,0,0,31.84,25.56l19.13-2.1,3.54,32.29,34.73-36.48,26.81-2.93a28.87,28.87,0,0,0,25.56-31.84l-5.24-47.83A28.87,28.87,0,0,0,218.09,273.16Z"/><path class="cls-3" d="M144.39,341.15l30,22c2.53,1.86,6,.68,7.71-1.68q17.19-24.33,34.35-48.65c4.16-5.89-5.25-11.9-9.39-6l-30.93,43.81q-12.83-9.47-25.66-18.89C144.61,327.48,138.61,336.91,144.39,341.15Z"/><polygon class="cls-7" points="-1.33 -46.24 -25.44 -50.29 -46.64 75.85 -19.47 61.71 1.58 83.96 22.79 -42.18 -1.33 -46.24"/><polygon class="cls-7" points="26.49 -52.17 46.85 -65.72 117.7 40.77 87.13 38.96 77 67.86 6.14 -38.63 26.49 -52.17"/><polygon class="cls-8" points="92.99 -77.97 84.9 -61.34 93.47 -44.95 79.61 -32.69 81.23 -14.27 63.75 -8.23 58.23 9.42 39.77 8.3 27.88 22.47 11.25 14.38 -5.14 22.95 -17.4 9.09 -35.82 10.72 -41.86 -6.77 -59.51 -12.29 -58.39 -30.75 -72.56 -42.64 -64.47 -59.27 -73.04 -75.66 -59.18 -87.91 -60.81 -106.34 -43.33 -112.38 -37.8 -130.03 -19.34 -128.9 -7.45 -143.07 9.18 -134.99 25.57 -143.56 37.83 -129.7 56.25 -131.32 62.29 -113.84 79.94 -108.32 78.81 -89.85 92.99 -77.97"/><path class="cls-3" d="M72.52-73.6A63.71,63.71,0,0,1,23.51,2a63.72,63.72,0,0,1-75.6-49,63.71,63.71,0,0,1,49-75.59A63.72,63.72,0,0,1,72.52-73.6Z"/><path class="cls-5" d="M181.59,975.44a5,5,0,1,1-3.94-5.81A5,5,0,0,1,181.59,975.44Z"/><path class="cls-5" d="M142.59,981.32a5,5,0,1,1-6.9-1.32A5,5,0,0,1,142.59,981.32Z"/><path class="cls-5" d="M117.67,1011.67a5,5,0,1,1-5.81,3.94A5,5,0,0,1,117.67,1011.67Z"/><path class="cls-5" d="M121.5,1050.75a5,5,0,1,1-1.31,6.89A5,5,0,0,1,121.5,1050.75Z"/><path class="cls-5" d="M151.86,1075.68a5,5,0,1,1,3.94,5.8A5,5,0,0,1,151.86,1075.68Z"/><path class="cls-5" d="M190.94,1071.83a5,5,0,1,1,6.89,1.32A4.94,4.94,0,0,1,190.94,1071.83Z"/><path class="cls-5" d="M215.86,1041.48a5,5,0,1,1,5.8-3.94A5,5,0,0,1,215.86,1041.48Z"/><path class="cls-5" d="M212,1002.4a5,5,0,1,1,1.32-6.89A5,5,0,0,1,212,1002.4Z"/><path class="cls-5" d="M140.85,1024.31l16.94,16.79a6.15,6.15,0,0,0,6.23,1.29l49.29-22.57c7.3-3.35,3.38-15.34-4-12L160,1030.44l6.23,1.3L149.29,1015c-5.79-5.74-14.18,3.67-8.44,9.36Z"/><rect class="cls-11" x="172.43" y="933.27" width="19.41" height="25.81" transform="matrix(0.19, -0.98, 0.98, 0.19, -781.41, 947.48)"/><path class="cls-11" d="M164.16,936.44l38.28,7.32c11.14,2.13,14.45-15.15,3.3-17.28l-38.28-7.32c-11.14-2.13-14.44,15.15-3.3,17.28Z"/><rect class="cls-11" x="227.34" y="972.84" width="11.69" height="15.54" transform="translate(-510.47 300.21) rotate(-34.17)"/><path class="cls-11" d="M229.68,968.81l13.18,19.42c3.84,5.65,12.61-.3,8.77-6l-13.18-19.42c-3.84-5.65-12.61.3-8.77,5.95Z"/><rect class="cls-11" x="116.32" y="952.15" width="15.54" height="11.69" transform="translate(-494.02 215.64) rotate(-32.4)"/><path class="cls-11" d="M132,948.56l-19.82,12.58c-5.77,3.66-11.45-5.29-5.68-8.95l19.82-12.58c5.77-3.66,11.45,5.29,5.68,8.95Z"/><path class="cls-8" d="M152.4,1101.68A77.46,77.46,0,1,1,243,1040.15,77.54,77.54,0,0,1,152.4,1101.68Zm26.12-136.6a61.62,61.62,0,1,0,48.95,72.1A61.69,61.69,0,0,0,178.52,965.08Z"/><rect class="cls-8" x="-33.69" y="172.94" width="144.88" height="50.4" transform="translate(-104.85 56.22) rotate(-34.27)"/><polygon class="cls-16" points="125.13 139.28 112.81 178.18 84.42 136.52 125.13 139.28"/><polygon class="cls-17" points="120.75 153.08 125.13 139.28 110.68 138.3 120.75 153.08"/><rect class="cls-12" x="-43.07" y="175.83" width="144.88" height="17.09" transform="translate(-98.73 48.56) rotate(-34.27)"/><rect class="cls-12" x="-24.27" y="203.41" width="144.87" height="17.09" transform="matrix(0.83, -0.56, 0.56, 0.83, -110.99, 63.92)"/><polygon class="cls-22" points="191.63 504.98 87.53 486.09 164.94 557.77 268.56 577.63 191.63 504.98"/><polygon class="cls-17" points="212.93 602.28 100.65 545.5 121.9 503.47 234.19 560.25 212.93 602.28"/><path class="cls-23" d="M248.06,559.38l-16.27,32.19c-1.66,3.27,3.41,5.82,5.06,2.56l16.27-32.19c1.65-3.26-3.41-5.82-5.06-2.56Z"/><path class="cls-23" d="M238.27,597.23a5.5,5.5,0,1,1-2.43-7.4A5.51,5.51,0,0,1,238.27,597.23Z"/><rect class="cls-23" x="213.78" y="606.01" width="23.09" height="1.57" transform="translate(-417.87 534.18) rotate(-63.19)"/><rect class="cls-23" x="216.58" y="607.43" width="23.09" height="1.57" transform="translate(-417.53 536.9) rotate(-63.14)"/><path class="cls-8" d="M237.22,728.91a47.56,47.56,0,1,0-66.75,55.3c11.52,8.86,18.69,24.31,18.69,24.31l19.2-5.29L227.55,798S225.8,781,231.16,767.5A47.38,47.38,0,0,0,237.22,728.91Z"/><path class="cls-9" d="M239,800.39a5,5,0,0,1-3.47,6.12L186.7,820a5,5,0,0,1-6.12-3.48l-.41-1.47a5,5,0,0,1,3.48-6.12l48.83-13.44a5,5,0,0,1,6.12,3.47Z"/><path class="cls-9" d="M242.05,811.46a5,5,0,0,1-3.48,6.12L189.74,831a5,5,0,0,1-6.12-3.47l-.4-1.47A5,5,0,0,1,186.7,820l48.83-13.45a5,5,0,0,1,6.12,3.48Z"/><path class="cls-9" d="M245.1,822.53a5,5,0,0,1-3.48,6.12l-48.83,13.44a5,5,0,0,1-6.12-3.47l-.4-1.47a5,5,0,0,1,3.47-6.13l48.83-13.44a5,5,0,0,1,6.13,3.48Z"/><path class="cls-20" d="M179.25,747.48Q186,761.81,193.12,776c3.09,6.19,6.21,12.38,9.61,18.4.81,1.44,2.32,5.27,4.38,5.38,3.21.19-3.64-52.79-4.43-58.75-.18-1.37-2.35-1.39-2.17,0q1.65,12.53,3.11,25.08c1.14,9.81,4.33,22.09,2.64,31.95.24-1.39,1.41.14.21-1.64-.48-.71-.91-1.47-1.36-2.21-1.25-2.12-2.4-4.29-3.55-6.47-3.07-5.75-6-11.6-8.86-17.44q-5.89-11.91-11.58-23.92c-.6-1.27-2.46-.15-1.87,1.11Z"/><path class="cls-20" d="M177.35,759.81l34.93-9.61a1.09,1.09,0,0,0-.58-2.09l-34.92,9.61a1.08,1.08,0,0,0,.57,2.09Z"/><path class="cls-9" d="M79.42,621.21a4.59,4.59,0,0,0-4-5.06L-5.87,606.4a4.6,4.6,0,0,0-5.06,4q-4.86,40.65-9.75,81.31a4.59,4.59,0,0,0,4,5.06l81.31,9.75a4.19,4.19,0,0,0,3.21-.84l.14-.11.13-.11a4.2,4.2,0,0,0,1.58-2.92ZM61.18,696.93l-72.28-8.67L-2.43,616l72.27,8.67Q65.52,660.79,61.18,696.93Z"/><path class="cls-9" d="M-.57,652.43l17.16,25c1.45,2.11,4.48,2.14,6.39.77L62.42,649.9c4.78-3.42-.86-10.56-5.62-7.15Q39,655.49,21.28,668.2q-7.34-10.69-14.7-21.39C3.25,642-3.88,647.62-.57,652.43Z"/><path class="cls-9" d="M75.15,437.91a70.66,70.66,0,1,1-37.07-92.8A70.66,70.66,0,0,1,75.15,437.91Z"/><text class="cls-10" transform="translate(-31.32 444.22) rotate(23.23)">?</text><path class="cls-9" d="M165.58,1241.3a70.66,70.66,0,1,1-37.06-92.8A70.66,70.66,0,0,1,165.58,1241.3Z"/><text class="cls-10" transform="translate(59.12 1247.61) rotate(23.23)">?</text><path class="cls-14" d="M83.47,864.18A52.1,52.1,0,1,1,29.62,813.9,52.1,52.1,0,0,1,83.47,864.18Z"/><text class="cls-19" transform="translate(14.41 901.78) rotate(-1.96)">?</text><path class="cls-9" d="M1840.25,875.06a70.66,70.66,0,1,1-37.07-92.8A70.68,70.68,0,0,1,1840.25,875.06Z"/><text class="cls-10" transform="translate(1733.78 881.37) rotate(23.23)">?</text><path class="cls-14" d="M1831.63-17.2a52.1,52.1,0,1,1-68.46-27.23A52.1,52.1,0,0,1,1831.63-17.2Z"/><text class="cls-15" transform="translate(1781.05 42.92) rotate(-23.3)">?</text><rect class="cls-5" x="1859.5" y="271.47" width="182.94" height="246.73" transform="translate(-39.46 413.49) rotate(-11.98)"/><rect class="cls-3" x="1873.43" y="279.93" width="154.38" height="226.5" transform="translate(-39.13 413.33) rotate(-11.98)"/><rect class="cls-6" x="1922.4" y="308.25" width="80.06" height="5.89" transform="translate(-21.86 414.01) rotate(-11.98)"/><rect class="cls-6" x="1930.55" y="346.67" width="80.06" height="5.89" transform="translate(-29.66 416.49) rotate(-11.98)"/><rect class="cls-6" x="1938.7" y="385.09" width="80.06" height="5.89" transform="translate(-37.45 419.07) rotate(-11.98)"/><rect class="cls-6" x="1946.85" y="423.51" width="80.06" height="5.89" transform="translate(-45.25 421.63) rotate(-11.98)"/><rect class="cls-6" x="1955.01" y="461.93" width="80.06" height="5.89" transform="translate(-53.04 424.21) rotate(-11.98)"/><path class="cls-6" d="M1906.43,342.1l-35.1,7.44-7.44-35.1L1899,307Zm-31,1.14,24.7-5.24-5.24-24.7-24.7,5.24Z"/><polygon class="cls-7" points="1887.98 341.75 1874.34 332.44 1877.34 328.05 1886.47 334.29 1907.31 301.96 1911.78 304.84 1887.98 341.75"/><path class="cls-6" d="M1917.46,394.09l-35.1,7.45-7.44-35.1L1910,359Zm-31,1.15,24.7-5.24-5.24-24.7-24.7,5.24Z"/><polygon class="cls-7" points="1899.01 393.75 1885.38 384.44 1888.37 380.05 1897.5 386.28 1918.34 353.96 1922.81 356.84 1899.01 393.75"/><path class="cls-6" d="M1928.49,446.09l-35.1,7.45-7.44-35.1,35.1-7.45Zm-31,1.14,24.7-5.24L1917,417.3l-24.7,5.24Z"/><polygon class="cls-7" points="1910.04 445.75 1896.41 436.43 1899.4 432.05 1908.54 438.28 1929.37 405.95 1933.84 408.83 1910.04 445.75"/><path class="cls-6" d="M1939.53,498.09l-35.11,7.45-7.44-35.1,35.1-7.45Zm-31,1.14,24.7-5.24L1928,469.3l-24.7,5.23Z"/><polygon class="cls-7" points="1921.07 497.75 1907.44 488.44 1910.43 484.04 1919.57 490.28 1940.4 457.95 1944.87 460.83 1921.07 497.75"/><path class="cls-8" d="M1953,264.85a14.48,14.48,0,0,1-14.89-5,15.66,15.66,0,0,0-.3-4.07A15.46,15.46,0,1,0,1909,266a14.51,14.51,0,0,1-11.58,10.62c-11.77,2.5-17.16,9-15.86,15.13l46.06-9.77h0l46.07-9.77C1972.34,266.13,1964.77,262.35,1953,264.85Zm-29.38-1.46a5.72,5.72,0,1,1,4.41-6.78A5.7,5.7,0,0,1,1923.62,263.39Z"/><path class="cls-9" d="M1925,603.05a4.61,4.61,0,0,0-4-5.06l-81.31-9.75a4.59,4.59,0,0,0-5.06,4l-9.75,81.31a4.58,4.58,0,0,0,4,5.06l81.32,9.75a4.21,4.21,0,0,0,3.21-.84l.13-.11.14-.11a4.23,4.23,0,0,0,1.58-2.92Zm-18.25,75.72-72.28-8.67,8.67-72.28,72.28,8.67Z"/><path class="cls-9" d="M1845,634.27q8.58,12.5,17.17,25c1.45,2.11,4.47,2.14,6.39.77L1908,631.74c4.77-3.42-.87-10.56-5.63-7.15q-17.74,12.74-35.51,25.45l-14.71-21.39C1848.79,623.8,1841.66,629.46,1845,634.27Z"/><path class="cls-8" d="M2072.9,581.21a3.84,3.84,0,0,0-2.54-4.73l-65.45-19.76a3.82,3.82,0,0,0-4.73,2.54q-9.89,32.72-19.76,65.44a3.84,3.84,0,0,0,2.54,4.74l65.44,19.75a3.47,3.47,0,0,0,2.76-.23.52.52,0,0,0,.13-.06l.13-.07a3.57,3.57,0,0,0,1.72-2.18Q2063,613.94,2072.9,581.21ZM2047,640.83l-58.17-17.57q8.78-29.09,17.56-58.17l58.18,17.56Q2055.74,611.73,2047,640.83Z"/><path class="cls-8" d="M2041.76,622.73q-4.86-9.09-9.73-18.15l18.15-9.73c4.51-2.42.76-9.41-3.75-7l-18.15,9.73q-4.87-9.08-9.73-18.15c-2.42-4.51-9.41-.76-7,3.75q4.86,9.06,9.73,18.15l-18.15,9.73c-4.51,2.41-.76,9.4,3.75,7l18.15-9.73,9.73,18.15C2037.19,631,2044.18,627.24,2041.76,622.73Z"/><path class="cls-8" d="M1952.67,97.06a3.83,3.83,0,0,0-2.54-4.73l-65.44-19.76a3.83,3.83,0,0,0-4.74,2.54q-9.87,32.72-19.76,65.44a3.83,3.83,0,0,0,2.54,4.73L1928.17,165a3.52,3.52,0,0,0,2.76-.23l.13-.06.13-.08a3.55,3.55,0,0,0,1.72-2.17Q1942.8,129.79,1952.67,97.06Zm-25.94,59.61-58.17-17.56q8.78-29.09,17.57-58.17L1944.3,98.5Q1935.53,127.59,1926.73,156.67Z"/><path class="cls-8" d="M1921.53,138.58q-4.86-9.09-9.73-18.15l18.15-9.74c4.51-2.41.76-9.4-3.75-7l-18.15,9.74-9.73-18.16c-2.42-4.5-9.41-.76-7,3.75q4.88,9.07,9.73,18.15l-18.15,9.74c-4.51,2.41-.76,9.4,3.75,7l18.15-9.73,9.73,18.15C1917,146.83,1924,143.09,1921.53,138.58Z"/><path class="cls-5" d="M2019.66-106l-80.14-27.47a28.87,28.87,0,0,0-36.66,18L1887.26-70a28.86,28.86,0,0,0,18,36.67l18.2,6.24L1912.88,3.62l46.95-18.25,25.51,8.74A28.87,28.87,0,0,0,2022-23.83l15.6-45.52A28.87,28.87,0,0,0,2019.66-106Z"/><polygon class="cls-7" points="1989.17 803.52 1965.31 798.19 1937.44 923.03 1965.32 910.35 1985.16 933.68 2013.04 808.85 1989.17 803.52"/><polygon class="cls-7" points="2017.26 799.07 2038.31 786.62 2103.41 896.72 2072.98 893.29 2061.33 921.61 1996.22 811.51 2017.26 799.07"/><polygon class="cls-8" points="2085.04 776.84 2076.08 793.02 2083.76 809.84 2069.28 821.34 2069.92 839.83 2052.14 844.93 2045.69 862.26 2027.31 860.15 2014.69 873.67 1998.51 864.72 1981.69 872.4 1970.18 857.91 1951.7 858.56 1946.6 840.77 1929.27 834.33 1931.37 815.95 1917.85 803.33 1926.81 787.15 1919.12 770.32 1933.61 758.83 1932.97 740.34 1950.75 735.24 1957.2 717.9 1975.58 720.01 1988.2 706.49 2004.38 715.45 2021.2 707.76 2032.7 722.25 2051.18 721.61 2056.29 739.39 2073.62 745.84 2071.52 764.22 2085.04 776.84"/><path class="cls-3" d="M2064.36,780.11a63.71,63.71,0,1,1-72.89-52.94A63.7,63.7,0,0,1,2064.36,780.11Z"/><path class="cls-8" d="M2050.36,782.33A50.21,50.21,0,0,1,2009.19,839c-27,5-51.89-15.1-56.66-41.17-5-27,15.09-51.89,41.16-56.66,27-4.95,51.9,15.09,56.67,41.16.52,2.84,5,2.15,4.43-.7a54.8,54.8,0,0,0-61.8-44.89c-29.68,4-48.73,33.18-44.89,61.8,4,29.68,33.18,48.73,61.8,44.9,29.68-4,48.73-33.19,44.89-61.81C2054.41,778.75,2050,779.47,2050.36,782.33Z"/><polygon class="cls-11" points="1965.23 990.4 2015.34 1024.42 1973.45 1032.59 1965.23 990.4"/><polygon class="cls-12" points="1965.23 990.4 1845.17 1013.81 1887.12 1228.98 2049.06 1197.42 2015.34 1024.42 1973.45 1032.59 1965.23 990.4"/><rect class="cls-13" x="1865.44" y="1059.08" width="95.8" height="3.3" transform="translate(-167.61 385.69) rotate(-11.03)"/><rect class="cls-13" x="1867.55" y="1069.89" width="95.8" height="3.31" transform="matrix(0.98, -0.19, 0.19, 0.98, -169.64, 386.31)"/><rect class="cls-13" x="1869.96" y="1083.92" width="62.21" height="3.3" transform="translate(-172.57 383.75) rotate(-11.03)"/><path class="cls-13" d="M2007.31,1035.68a1.38,1.38,0,0,0-1.61-1.09l-34.61,6.74A1.39,1.39,0,0,0,1970,1043q3.36,17.29,6.74,34.6a1.39,1.39,0,0,0,1.62,1.09l34.6-6.75a1.28,1.28,0,0,0,.84-.54l0,0s0,0,0,0a1.28,1.28,0,0,0,.19-1Zm3.78,33.77-31.9,6.22q-3.11-15.95-6.22-31.9l31.9-6.21Q2008,1053.51,2011.09,1069.45Z"/><path class="cls-11" d="M2001.08,1046.13l-12.53,16.78-5.27-4c-2.12-1.62-4.42,1.81-2.31,3.42l6.84,5.22a2.1,2.1,0,0,0,2.87-.56q6.9-9.27,13.82-18.53C2006.1,1046.3,2002.67,1044,2001.08,1046.13Z"/><rect class="cls-13" x="1875.23" y="1109.33" width="95.8" height="3.3" transform="translate(-177.03 388.47) rotate(-11.03)"/><rect class="cls-13" x="1877.34" y="1120.15" width="95.8" height="3.31" transform="translate(-179.07 389.08) rotate(-11.03)"/><rect class="cls-13" x="1879.76" y="1134.17" width="62.21" height="3.3" transform="translate(-182.02 386.61) rotate(-11.03)"/><path class="cls-13" d="M2017.11,1085.93a1.39,1.39,0,0,0-1.62-1.08l-34.6,6.74a1.39,1.39,0,0,0-1.09,1.62l6.75,34.6a1.38,1.38,0,0,0,1.61,1.08l34.6-6.74a1.3,1.3,0,0,0,.85-.54l0,0,0,0a1.29,1.29,0,0,0,.18-1Q2020.48,1103.24,2017.11,1085.93Zm3.77,33.78-31.89,6.22q-3.1-15.95-6.22-31.9l31.9-6.22Z"/><path class="cls-11" d="M2010.87,1096.39l-12.52,16.78q-2.64-2-5.27-4c-2.13-1.61-4.42,1.82-2.31,3.43l6.83,5.21a2.08,2.08,0,0,0,2.87-.56l13.83-18.52C2015.9,1096.56,2012.46,1094.26,2010.87,1096.39Z"/><rect class="cls-13" x="1885.03" y="1159.59" width="95.8" height="3.3" transform="translate(-186.47 391.27) rotate(-11.03)"/><path class="cls-13" d="M2026.9,1136.19a1.39,1.39,0,0,0-1.61-1.09l-34.6,6.75a1.39,1.39,0,0,0-1.09,1.61l6.75,34.6a1.38,1.38,0,0,0,1.61,1.09l34.6-6.74a1.27,1.27,0,0,0,.85-.55l0,0,0,0a1.29,1.29,0,0,0,.18-1Zm3.78,33.78-31.9,6.22-6.21-31.9,31.89-6.22Q2027.58,1154,2030.68,1170Z"/><path class="cls-11" d="M2020.67,1146.65l-12.52,16.77-5.28-4c-2.12-1.61-4.42,1.82-2.31,3.43l6.84,5.21a2.08,2.08,0,0,0,2.87-.56L2024.1,1149C2025.69,1146.82,2022.26,1144.51,2020.67,1146.65Z"/></g></g></g><g id="OBJECTS"><path class="cls-24" d="M304.51,135.3s33.27-23.42,60.28-22.9,49.31,22.19,49.31,22.19Z"/><path class="cls-25" d="M470.08,207.06a45.48,45.48,0,0,0-28,9.6V120H214.65a38.07,38.07,0,0,0-38.07,38.07V385.57h81.65a45.74,45.74,0,1,1,72.29,0h111.6V289a45.72,45.72,0,1,0,28-81.89Z"/><path class="cls-26" d="M1587.77,417.35c1.52-2.78,6.57-5.73,6.57-5.73l-1.34,5.06Z"/><path class="cls-27" d="M1513.49,365.75l5.76,20.78c45.41,24.06,86.52,10.22,86.52,10.22l-1-4.89C1560.78,399,1513.49,365.75,1513.49,365.75Z"/><path class="cls-26" d="M1553.84,438.08s30.46-1.54,33.32,5.59c6,15-22.34,47.78-17.46,101.78l-8.84-5.85s-3.46-55.67,6-77.56c0,0-2.3,0-13.06-.45S1553.84,438.08,1553.84,438.08Z"/><path class="cls-24" d="M1872.22,288a35.93,35.93,0,0,0-28.4-42.13l-210.71-41-17.42,89.51a43.17,43.17,0,1,1-13,67l-17.42,89.51,89.5,17.42a43.16,43.16,0,1,0,67,13l89.51,17.42Z"/><path class="cls-28" d="M307,929.59s-7.21,2.09-12.16,10.75-8.69,17,1.85,14.78c9.9-2.12,18.71-13.11,17.64-26.85Z"/><path class="cls-29" d="M303.79,923.22V931s-3,7.17,3,7,8.23-10.27,8-14.72S303.79,923.22,303.79,923.22Z"/><path class="cls-28" d="M329.84,929.59s7.22,2.09,12.16,10.75,8.7,17-1.85,14.78c-9.89-2.12-18.71-13.11-17.64-26.85Z"/><path class="cls-29" d="M333.05,923.22V931s3,7.17-3,7-8.24-10.27-8-14.72S333.05,923.22,333.05,923.22Z"/><path class="cls-28" d="M341.47,747s3.28,44.06,2.7,69.32-10.82,84.85-9.52,108.75c0,0-11.35,2.69-14,0,0,0,4.14-119.67-2.28-132.3-6.41,12.63-2.27,132.3-2.27,132.3-2.68,2.69-14,0-14,0,1.3-23.9-8.93-83.49-9.51-108.75S295.21,747,295.21,747Z"/><path class="cls-29" d="M430.28,640.12c-3.38.83-6.35,2.07-13,.87-8.49-1.51-11.63,2.42-11.63,2.42l-1,1.74s-19.63,66.54-46.68,53-20.11-18.44-39.08-19.67h-1c-19,1.23-12,6.14-39.07,19.67s-46.68-53-46.68-53l-1-1.74s-3.14-3.93-11.63-2.42c-6.67,1.2-9.64,0-13-.87s-1.49.08.62,2.18c3.79,3.78,11.37,4,17.82,4.37,0,0,15.12,83.86,56.68,71.81,4.54-1.31,8.51-2.48,12-3.52.59,10.3,1.1,34.32-.68,44-2.75,15,9,16.55,23,16.55h4c14,0,25.78-1.58,23-16.55-1.78-9.72-1.25-33.93-.66-44.21,3.74,1.1,8,2.35,12.91,3.77,41.56,12,56.68-71.81,56.68-71.81,6.45-.4,14-.59,17.82-4.37C431.77,640.2,433.66,639.28,430.28,640.12Z"/><path class="cls-30" d="M420.73,505.6a45.52,45.52,0,0,1,28,9.59V418.56H302.09a45.74,45.74,0,1,0-72.28,0H183.15V646a38.06,38.06,0,0,0,38.07,38.07H448.69V587.48a45.72,45.72,0,1,1-28-81.88Z"/><path class="cls-31" d="M355.16,718.48a30.39,30.39,0,0,0,3.2.72c.35.06.69.13,1,.17.8.11,1.58.17,2.35.21s1.24,0,1.85,0h0l-2.69-20.3a17.71,17.71,0,0,1-3-1.15c-27.05-13.53-8.84-17.61-39.08-19.67h-1c-28.94,1.13-12,6.14-39.07,19.67a8.53,8.53,0,0,1-2.55,1.05,15.31,15.31,0,0,1-4,.7L266,718.45h0a27.17,27.17,0,0,0,3.23.79l.47.08c.54.09,1.08.15,1.63.21.75.06,1.5.11,2.27.11l1.11,0a25.75,25.75,0,0,0,2.86-.26l.57-.1a30.11,30.11,0,0,0,3.44-.77c4.54-1.31,8.51-2.48,12-3.52.59,10.3,1.1,34.32-.68,44-2.75,15,9,16.55,23,16.55h4c14,0,25.78-1.58,23-16.55-1.78-9.72-1.25-33.93-.66-44.21C346,715.81,350.25,717.06,355.16,718.48Z"/><path class="cls-29" d="M315.59,674.91c18.46,6.73,29.78-20.95,33.16-34.09,3-11.56-14.73-16.39-14.73-16.39s-16.66-7.72-21.84,3.05C306.31,639.71,297.14,668.17,315.59,674.91Z"/><path class="cls-29" d="M325.89,662.6s-1.49,11,0,17.92c0,0-.76,3.58-7.55,3.58s-7.54-3.58-7.54-3.58c1.49-6.87,0-17.92,0-17.92Z"/><path class="cls-32" d="M355,640.31c1.44-10.5-11.79-28.77-27.26-22.11h0c-27.69-7.73-19.13,18.48-19.13,18.48,8.69,2.93,17.67-7.92,17.67-7.92S322,646,341.94,656.16l1.05.35C353.91,653.82,355,640.45,355,640.31Z"/><path class="cls-3" d="M284.85,720.31l-.47-1.33c17-6,17-13.7,17-13.77l1.41-.05C302.83,705.52,302.93,713.92,284.85,720.31Z"/><path class="cls-3" d="M352.08,720.31l.46-1.33c-17-6-17-13.7-17-13.77l-1.41-.05C334.09,705.52,334,713.92,352.08,720.31Z"/><path class="cls-26" d="M1517.47,368.14s3.8-26.27,18.18-23.14c6.78,1.47,7.21-9.67,7.21-9.67l6-1.52c-3.16-5.54,3-21.26,3-21.26s-23-11.08-32,8.14c-2.31,4.91-2.08,10.68-3.78,15.78-5,14.9-9.63,28-9.63,28Z"/><path class="cls-32" d="M1525,296.13s9.13-11.13-1.46-16.61-22.68.31-22.43,8.58,7.93,15.76,15.62,12.79S1525,296.13,1525,296.13Z"/><path class="cls-28" d="M1530.77,429.05l.71.31,1.27-.31Z"/><path class="cls-28" d="M1558.42,435.61c-10.7.25-23.78-4.93-26.94-6.25-6.56,1.63-37.21,11.3-31.62,25.28,6.27,15.68,54,6.95,54,6.95C1552.7,451.75,1558.42,435.61,1558.42,435.61Z"/><path class="cls-27" d="M1530.38,424.44a50,50,0,0,1-7.14-18.44c-.16-9.07,8.43-21.78,5.91-26.25-1.72-3.07-5.18-10.72-7.18-15.25.15-2.31.29-3.65.29-3.65h0a84.46,84.46,0,0,1,1.3-9c3.89,1.17,7-3,4.93-3.12s-15.18-2.72-15.18-2.72h-.53s-4.64,8-6.42,13.34h0c-36.41,54-6.55,105-5.65,95.42s14.57-18.45,24.68-21.77C1532.33,430.74,1532.05,427.18,1530.38,424.44Z"/><path class="cls-28" d="M1560.42,542.89a15.84,15.84,0,0,0-1.15-5.08l-.49-1.2h1.56c3.31,5.59,10.87,9.13,17.36,9h.31c9.57-.22,10.1,8.1,10.1,8.1s-13.6,4.91-22.28-3.8l-3.09-3.12,1.29,7.46-3-.13Z"/><path class="cls-26" d="M1583.28,464l-15.43,5.84c.14,25.33,6.55,57.29,6.55,57.29l9.55,4.58C1578.35,507.43,1580.28,480.77,1583.28,464Z"/><path class="cls-28" d="M1574.4,530.46a15.44,15.44,0,0,0-1.83-4.87l-.64-1.13,1.54-.21h0c4,5.09,12,7.57,18.42,6.6l.31-.05c9.45-1.51,11.11,6.66,11.11,6.66s-12.81,6.71-22.59-.75l-3.49-2.67,2.29,7.22-3,.27Z"/><path class="cls-32" d="M1551.82,312.55s6-.15,4.46-8.58-14.64-24.33-32-11.17-28.6,27.91-7.35,44.36c0,0,.5-22,17.28-18.06C1543.14,321.21,1551.82,312.55,1551.82,312.55Z"/><path class="cls-32" d="M1542.47,315.89s-8.4,4.52-8.19,10.34c0,0-1.61-5.17,1.4-8.94A5.13,5.13,0,0,1,1542.47,315.89Z"/><path class="cls-26" d="M1600.15,422.83a28.07,28.07,0,0,0,6-1.81c2.26-1-2.13-1-4.47-1a18,18,0,0,0,3.45-1.12c4-1.65-4.78-1.53-4.78-1.53,4.45-.86,5.27-2.59,2.14-2.92s-14.69,2.92-14.69,2.92l-1.32,6.84c4.73,1.85,17.49,1.11,20.3-.54S1600.15,422.83,1600.15,422.83Z"/><path class="cls-3" d="M1526,392.57a7.49,7.49,0,0,1-1-.08l.19-1.31c1.47.21,2.49-.1,3.11-.94,3-4-2.93-18.84-5.47-24.2l1.2-.57c.39.82,9.4,20.06,5.34,25.56A3.92,3.92,0,0,1,1526,392.57Z"/><path class="cls-27" d="M1513.24,368.14l-5.38,23.17c32.61,37.74,78.59,32.88,78.59,32.88l1.32-6.84C1531.1,416.8,1513.24,368.14,1513.24,368.14Z"/><path class="cls-3" d="M1533.77,416.32c-12.91-7.71-25.28-26.72-25.8-27.53l1.12-.72c.12.2,12.72,19.56,25.36,27.11Z"/><path class="cls-3" d="M1571.46,516.18l-1.32-.12c3.1-33.64,17.29-54.53,17.43-54.74l1.09.75C1588.52,462.28,1574.53,482.91,1571.46,516.18Z"/><path class="cls-26" d="M340.11,266.55s-.28,31.07-3.59,64.69c-3.37,34.13-9.77,70.87-9.95,78.12l-7.23-7.7s-5.18-55.59,1.24-84.37c0,0-4.79-39.83-4.43-50.74Z"/><path class="cls-28" d="M319.34,401.66a3.76,3.76,0,0,1,4.53,2c1.36,3,3.43,7.55,12.75,7s14.68,4.11,15.05,8.09c0,0-20.89,4.72-26.86-2.49l-2-3.48-1.62,6.09-1.86-.37Z"/><path class="cls-26" d="M350.91,266.55s-.28,31.07-3.59,64.69c-3.37,34.13-9.77,70.87-10,78.12l-7.22-7.7s-5.18-55.59,1.24-84.37c0,0-4.8-39.83-4.43-50.74Z"/><path class="cls-3" d="M336.8,409.89l1.13-1.05-7.05-7.51c-.38-4.17-4.85-56.55,1.25-83.87l0-.13v-.13c-.05-.4-4.78-39.9-4.42-50.63l-1.54-.05c-.35,10.64,4.07,47.8,4.42,50.73-6.33,28.61-1.28,83.92-1.23,84.48l0,.26Z"/><path class="cls-32" d="M353,218.55s1.46,46.51-.33,52.77a116.49,116.49,0,0,1-40.75.62s4.16-11.86,1.66-18.73c-2.21-6.08-10.74-17.67-.78-35.91C312.81,217.3,346.42,222.94,353,218.55Z"/><path class="cls-32" d="M346.27,115.18S343,138.31,358.58,146.4s-11.9,20.15-26.52-7.78c-3.9-7.44-4.93-20,3.77-21.67A102.2,102.2,0,0,1,346.27,115.18Z"/><path class="cls-26" d="M320.09,138.07l1.85-9.09-4.77-11.48a25.45,25.45,0,0,1,4.65-26.84h0a25.43,25.43,0,0,1,22.08-8.14l8.81-.63,4.48,8.41a4.16,4.16,0,0,1-.87,5.1,4.16,4.16,0,0,0-1,4.87l4,8.51-6,2.43s.93,12.92-7.88,11.85c-4.25-.52-5.89-.75-6.45-.86l-3,19.57Z"/><path class="cls-32" d="M362.71,86.6c-3.52.72-5.23-2.72-6.84-5.47C355.55,80,354,79,353.29,78l-.05-.14,0,0a10,10,0,0,0-2.11-2.1c-6.24-4.42-18.52-10.18-32.16-.62-14.48,10.16-21.41,45.29,2,58.87,0,0,1.86-23.67,10.23-22.74s-7-7.76.85-11.45c3.33-1.57,8.58-2.92,13.3-5h0C359.13,93.87,368.53,85.41,362.71,86.6Z"/><path class="cls-24" d="M312.64,180c-7-36.26,8.26-45.92,8.26-45.92,1.45,6.31,15,7.69,15,7.69s11.32,10.61,11.21,11.53c4,4.06,9.21,10.69,7.77,16.87-1.5,6.52-5.11,14.21-7.36,18.66,1.76,14.38,4.82,25.94,5.93,31.83,2.16,11.49-43.56,1-41.41-1.83S317.34,204.49,312.64,180Z"/><path class="cls-32" d="M342.77,123.85s6.67,13.46,17.37,13.64c0,0-7.93,2-16-5.11Z"/><path class="cls-28" d="M330.14,401.66a3.76,3.76,0,0,1,4.53,2c1.36,3,3.42,7.55,12.75,7s14.67,4.11,15.05,8.09c0,0-20.89,4.72-26.86-2.49l-2-3.48L332,418.92l-1.86-.37Z"/><path class="cls-24" d="M327.93,147.05s49.44,30.44,109,27.63l-1.54,7.79s-65.81,7.67-113-15.83Z"/><path class="cls-25" d="M323,162.49l1.33-.65c4.16,8.47,20.38,13.38,28.36,15.33l-.54,1.41C343.91,176.57,327.46,171.54,323,162.49Z"/><path class="cls-26" d="M436.9,174.67s5.24-1.31,5.24-4.47v-4.84s5.18,2.1,5.18,7.56-.41,11-11.95,9.55Z"/><path class="cls-24" d="M1854.74,778.22s-41.43-16.7-54.08-38.25l-3,4.33s24.49,39.86,50.63,50.3S1854.74,778.22,1854.74,778.22Z"/><path class="cls-25" d="M1730.75,572.77a43.17,43.17,0,1,1-68.21,0h-91.19V664a43.16,43.16,0,1,0,0,68.22v91.19H1786a35.93,35.93,0,0,0,35.93-35.93V572.77Z"/><polygon class="cls-29" points="1934.61 923.07 1942.69 923.07 1942.69 930.7 1933.19 930.7 1934.61 923.07"/><path class="cls-28" d="M1866.24,929.46a144.86,144.86,0,0,1-.79-18.88h-31.07c1.21,14.15,3.13,26.62,6.15,31.18,8.49,12.79,80.3-12.79,94.08-9.35V921.59S1889.85,920.12,1866.24,929.46Z"/><path class="cls-28" d="M1942.69,923.07s5-1.12,7.25-.82a112.93,112.93,0,0,1,.83,28.34s-8.08-4.31-8.08-19.89h-2.19S1942.87,928.78,1942.69,923.07Z"/><polygon class="cls-29" points="1934.61 937.16 1942.69 937.16 1942.69 944.78 1933.19 944.78 1934.61 937.16"/><path class="cls-28" d="M1832.3,868.14s-.26,74.92,8.23,87.71,80.3-12.79,94.08-9.35V935.68s-44.76-1.48-68.37,7.87c0,0-2.74-23.26,1.67-34.49,9.33-23.75,3.74-29.22,1.77-44.46Z"/><path class="cls-29" d="M1835.19,720l-1.87,12.73-1.83,6.75A3,3,0,0,0,1833,743l2.35,1.22-.71,3.56a6.17,6.17,0,0,0,4.76,7.26l8.2,1.76a6.76,6.76,0,0,1,5.21,7.91l-3.77,19.17,23-7.69.63-51.48Z"/><path class="cls-24" d="M1872.05,762.6s-18.37-.18-30.34,11.78c0,0,24.76-7.89,31-4.1Z"/><path class="cls-24" d="M1872.68,770.28s13.3,28.92,6.1,54.34-8.81,33.78-6.1,39.28-15,5.51-37.49,4.24h-6.7s-2.13-9.58,1.23-14.23-.43-12.28,7.8-38.78a102,102,0,0,0,4.19-40.75S1863.2,754.49,1872.68,770.28Z"/><path class="cls-24" d="M1852,774.38l-17.77,11.52a46.13,46.13,0,0,1-41.15,4.51l-44.41-16.54-5.62,3.24,54.5,29.51a46.14,46.14,0,0,0,34.31,3.87l16-4.44,5.39-31.67"/><path class="cls-28" d="M1942.69,937.16s5-1.12,7.25-.82a112.93,112.93,0,0,1,.83,28.34s-8.08-4.32-8.08-19.9h-2.19S1942.87,942.86,1942.69,937.16Z"/><path class="cls-3" d="M1865.58,944.44V924.83h1.31v17.83c4.11-1.23,22.33-6.42,39.47-7,19.28-.68,28.16-.6,28.25-.61v1.31c-.09,0-8.94-.07-28.19.61s-39.77,7.17-40,7.23Z"/><path class="cls-3" d="M1832.68,787l-.76-1.07c.52-.37,12.85-9,22.51-8.2l-.11,1.3C1845.17,778.31,1832.8,786.94,1832.68,787Z"/><path class="cls-3" d="M1837.07,810.84l-.53-1.19c.18-.08,17.43-7.7,22-13.06l1,.85C1854.78,803,1837.79,810.53,1837.07,810.84Z"/><path class="cls-32" d="M1865.31,713.05c-18.48-8.5-30.12-3.77-30,6.86l-.09.09,14.31,5.26a6.44,6.44,0,0,1,4.21,5.69,6.46,6.46,0,0,0,7.32,6l4.2-.58,3.34,13.2,4.39,2.71.6-4.63c1.23-6.58,3.74-7.7,3.74-7.7C1889.54,721.45,1866,713.36,1865.31,713.05Z"/><path class="cls-29" d="M1748.7,773.87s-5.87-4.93-7-9.68-2.34-8.27-4.46-7.1.94,8.28.94,8.28-10.8-12.25-15.73-8.5-6.34,11.73,2.82,14.08a134.54,134.54,0,0,1,17.86,6.16Z"/><path class="cls-33" d="M258,501.32a43.69,43.69,0,1,0-65.69,37.74,16.77,16.77,0,0,1,8.27,14.49v8.63H228v-8.29a17.09,17.09,0,0,1,8.26-14.82A43.66,43.66,0,0,0,258,501.32Z"/><rect class="cls-3" x="197.49" y="562.18" width="33.63" height="6.62" rx="1.41"/><rect class="cls-3" x="197.49" y="568.8" width="33.63" height="6.62" rx="1.41"/><rect class="cls-3" x="197.49" y="575.42" width="33.63" height="6.62" rx="1.41"/><path class="cls-3" d="M205.08,582h18.45a0,0,0,0,1,0,0v7.86a3.46,3.46,0,0,1-3.46,3.46H208.54a3.46,3.46,0,0,1-3.46-3.46V582A0,0,0,0,1,205.08,582Z"/><path class="cls-3" d="M221.78,518.44A5.22,5.22,0,0,0,218,520a5.22,5.22,0,0,0-7.48,0,5.25,5.25,0,1,0-1.07,8.12V564.2h2.14V528.14a5.07,5.07,0,0,0,5.34,0V564.2h2.15V528.14a5.13,5.13,0,0,0,2.66.76,5.23,5.23,0,1,0,0-10.46Zm-15,7.48a2.25,2.25,0,1,1,2.25-2.25A2.24,2.24,0,0,1,206.82,525.92Zm7.48,0a2.25,2.25,0,1,1,2.25-2.25A2.24,2.24,0,0,1,214.3,525.92Zm7.48,0a2.25,2.25,0,1,1,2.25-2.25A2.25,2.25,0,0,1,221.78,525.92Z"/><path class="cls-3" d="M214.3,448.15a3,3,0,0,1-3-3V432.76a3,3,0,1,1,6.08,0V445.1A3,3,0,0,1,214.3,448.15Z"/><path class="cls-3" d="M252.08,463.79a3,3,0,0,1,0-4.3l8.73-8.73a3,3,0,1,1,4.3,4.3l-8.73,8.73A3,3,0,0,1,252.08,463.79Z"/><path class="cls-30" d="M163.49,624.88a3.05,3.05,0,0,1,0-4.3l8.74-8.73a3,3,0,0,1,4.3,4.3l-8.73,8.73A3,3,0,0,1,163.49,624.88Z"/><path class="cls-3" d="M267.72,501.57a3,3,0,0,1,3-3.05h12.35a3,3,0,0,1,0,6.09H270.76A3,3,0,0,1,267.72,501.57Z"/><path class="cls-30" d="M142.45,574.08a3,3,0,0,1,3-3h12.35a3,3,0,0,1,0,6.08H145.49A3,3,0,0,1,142.45,574.08Z"/><path class="cls-3" d="M252.08,539.34a3,3,0,0,1,4.3,0l8.73,8.73a3,3,0,1,1-4.3,4.3l-8.73-8.73A3,3,0,0,1,252.08,539.34Z"/><path class="cls-30" d="M163.49,523.27a3,3,0,0,1,4.31,0l8.73,8.73a3,3,0,0,1-4.3,4.3l-8.74-8.73A3.05,3.05,0,0,1,163.49,523.27Z"/><polygon class="cls-25" points="1784.19 563.36 1794.16 574.33 1746.39 574.33 1754.73 563.36 1784.19 563.36"/><path class="cls-25" d="M1746.14,469.47s1.36-.07,3.57,0l1.35-13.52s7.14,6.24,6.38,14.31c9.81,1.62,23.2,6.32,28.21,19.75,7,18.74,3.79,48.93,2.62,57.89h-34.92l-1.17-2.12a21.56,21.56,0,0,1,2.12-24.27c4.24-5.08,9.21-9.23,10.65-15a18.76,18.76,0,0,0-4.14-17.28c-2.64,6.4-9.79,6.78-15.44,6.4s-10.91,9-10.91,9l-5.4-4.14Z"/><polygon class="cls-25" points="1749.12 554.92 1753.81 551.26 1788.52 551.26 1792.83 556.67 1785.71 560.01 1755.11 560.01 1749.12 554.92"/></g></svg>