<svg xmlns="http://www.w3.org/2000/svg" viewBox="0 0 1473.68 1316.68"><defs><style>.cls-1,.cls-2{fill:#fff;}.cls-1{stroke:#231f20;stroke-miterlimit:10;}.cls-3{fill:#152d35;}.cls-4{fill:#345b63;}.cls-5{fill:#d3dfff;}.cls-6{fill:#102048;}.cls-7{fill:#fbc343;}.cls-8{fill:#f9b384;}.cls-9{fill:#e49b31;}.cls-10{fill:#e28b6d;}.cls-11{fill:#3a6bea;}.cls-12{opacity:0.8;}.cls-13{fill:#eb5d60;opacity:0.4;}.cls-14{fill:#1f3c88;}</style></defs><g id="Layer_2" data-name="Layer 2"><g id="OBJECTS"><path class="cls-1" d="M1431,952.5c-24.1-54.82-70.39-100.57-126-123.09-57.91-23.45-124.41-14.91-185.41-22.77-53-6.82-91.2-30.47-122.84-72.52-30.31-40.29-57.48-84.91-107-103.55-39.16-14.73-83.68-10.64-122.6,4.7-71.72,28.28-125.88,88.4-171.5,148.3C554,838.25,520,898.14,443,900.09s-150.48-42-228.1-30.37C112.29,885.12,26.86,970.52,9,1072.19c-16.78,95.28,25.32,187.69,97.65,242H1349.83C1441,1217.5,1488.79,1083.93,1431,952.5Z"/><path class="cls-2" d="M307.16,1314.18h3.42a262.34,262.34,0,0,0,54.18-92.94c19.14-56.91,18.34-116.64-2.27-168.18-10.42-26-25.46-50.32-40-73.8-14.75-23.81-30-48.43-40.35-74.81a166.88,166.88,0,0,1-9.35-34.57l-2.57-.31a168.82,168.82,0,0,0,9.59,35.79c10.43,26.6,25.75,51.32,40.56,75.22,14.48,23.38,29.46,47.56,39.8,73.41,20.38,51,21.17,110.1,2.22,166.45A259.47,259.47,0,0,1,307.16,1314.18Z"/><path class="cls-2" d="M1343.82,1205.76c25.62,5.46,50.3,10.35,74.18,13.43.41-.79.8-1.58,1.21-2.37-24.07-3.06-49-8-74.86-13.51-39.4-8.39-82-17.48-124.34-17.48-26.19,0-52.24,3.49-77.3,12.77a157.42,157.42,0,0,0-27.36,13.3c-22.63-9.64-45.38-20.17-67.91-31.73q24.52-18.48,49.57-36c124-86.57,238.4-135.65,348.94-149.58-.22-.81-.45-1.62-.68-2.43-110.84,14-225.51,63.24-349.69,150Q1070,1159.95,1045,1178.9a835.08,835.08,0,0,1-74.62-43.36c-44-28.8-96.24-69.91-141.9-124.54,176.95-19.85,357.1-44.86,504.22-143.19,5.58-3.73,11.77-8.13,18.18-13.13-.71-.5-1.42-1-2.14-1.49-6.14,4.76-12.07,9-17.43,12.54-147.08,98.3-327.57,123.12-504.75,143-32.26-39-61.09-84.87-81.13-137.94-31.21-82.67-29.56-163.79,4.52-222.58,1.48-2.55,3.05-5.06,4.66-7.55-1.43.65-2.84,1.33-4.25,2q-1.3,2.13-2.57,4.29c-34.46,59.44-36.17,141.34-4.7,224.71,19.93,52.79,48.5,98.45,80.51,137.39q-15.39,1.72-30.75,3.41c-36.89,4.07-75,8.28-112.09,13-13.52,1.74-27.27,3.77-41,6.32-29.33-61.91-61.55-122.31-103.2-174.1l-1.8,1.76c41.29,51.4,73.31,111.34,102.46,172.82-59.68,11.38-117.63,32.77-148.57,82.58-28.9,46.5-28.87,110.79.08,191.08,1,2.78,2,5.51,3.08,8.23h2.67c-1.14-3-2.28-6-3.4-9.08-28.68-79.53-28.78-143.09-.31-188.92,30.58-49.2,88.21-70.32,147.56-81.56,10.36,21.9,20.36,44,30.3,65.94l1.08,2.38c34.53,76.22,70.24,149.78,117,211.24h3.12c-47.19-61.58-83.1-135.57-117.84-212.27l-1.08-2.38c-9.86-21.77-19.78-43.66-30-65.38,13.42-2.48,26.91-4.47,40.17-6.18,37-4.76,75.16-9,112.05-13.05q16.15-1.77,32.37-3.58c46.1,55.47,99,97.16,143.51,126.29a839.86,839.86,0,0,0,73.78,42.94c-42.53,32.17-83.9,66-124.29,99q-21,17.18-42.39,34.56h4q20.18-16.37,40-32.62c40.67-33.28,82.33-67.36,125.16-99.72,22.41,11.53,45,22,67.54,31.67-30.79,19.59-55.89,49.91-71.06,86.73-1.9,4.61-3.56,9.27-5.1,13.94h2.64c1.45-4.35,3-8.69,4.77-13,15.22-36.93,40.52-67.22,71.55-86.49,62.92,26.73,124.75,46.57,177.88,62.29l2,.59c22.4,6.62,45.3,13.41,65.55,24.3.57-.64,1.14-1.28,1.7-1.93-20.59-11.17-43.82-18-66.54-24.77l-2-.59c-52.59-15.56-113.72-35.16-176-61.49a154.31,154.31,0,0,1,25.38-12.16C1208.44,1176.91,1280.37,1192.24,1343.82,1205.76Z"/><path class="cls-2" d="M112.88,1043.82c11,45.2,6.11,94-13.52,133.92-12.86,26.15-31.43,49.81-54.3,70.14.45.7.92,1.4,1.38,2.11,23.24-20.59,42.11-44.61,55.16-71.14,19.89-40.43,24.88-89.87,13.7-135.62-8.73-35.75-26.29-66-50.55-88l-1.61,1.92C87,978.77,104.27,1008.6,112.88,1043.82Z"/><path class="cls-1" d="M678.7,471.26c21.78,22.26,31.54,59.75,19.53,94.32-11.63,33.47-37.12,61.19-67.74,79-24.64,14.34-56.78,22.25-81,7.24-18.11-11.22-27.5-33.24-28-54.54s6.64-42,15.49-61.43c12.48-27.31,29.27-53.8,54.29-70.41C625.72,442.56,657.76,449.87,678.7,471.26Z"/><path class="cls-1" d="M390,81.06H209.67V.5H390ZM213.42,77.31H386.26V4.25H213.42Z"/><path class="cls-1" d="M272.69,158.11H92.35V77.54H272.69ZM96.1,154.36H268.94V81.29H96.1Z"/><path class="cls-3" d="M1416.1,244q-17.5-58.23-61.61-107.07T1234,56.11q-76.35-31.92-194-31.92-93.86,0-191.32,25.31T679.33,121.84l62.28,171-33.38,27,48.41,14.23q71.67-37.51,130.6-54.49t125.09-16.87q66.2,0,100.24,31.92t34,77q0,54.48-34.91,96.74t-77.31,85.48q-29.37,30-57,62a444.72,444.72,0,0,0-48.75,68.6,373.51,373.51,0,0,0-34,78.88q-12.93,42.28-12.87,94.84c0,11.32.24,24.77.9,40.42.11,2.89.26,5.71.43,8.49H837.3l49.94,33.77h242.81a162.41,162.41,0,0,1-1.85-26.3V892a163.15,163.15,0,0,1,12.87-62.92,324.76,324.76,0,0,1,32.22-59.19,436.29,436.29,0,0,1,43.23-53.51q23.89-25.41,46-47.94,29.37-30,60.66-63.84a501.12,501.12,0,0,0,55.21-71.36,400.93,400.93,0,0,0,39.52-81.75q15.63-44.12,15.69-96.74T1416.1,244Z"/><path class="cls-4" d="M960.92,250.8q-65.5,0-123.62,16.33T708.23,319.86l-76.4-205.41q70.92-45.45,167.3-70T988.2,20q116.28,0,191.74,30.89T1299.06,129q43.59,47.31,60.9,103.62t17.28,107.23q0,51-15.51,93.62a384.12,384.12,0,0,1-39,79.12,485.82,485.82,0,0,1-54.57,69.06q-30.88,32.76-59.94,61.79-21.84,21.82-45.45,46.39A425.76,425.76,0,0,0,1120,741.62a313.87,313.87,0,0,0-31.84,57.29,155.06,155.06,0,0,0-12.72,60.89v21.84a153.42,153.42,0,0,0,1.83,25.45h-240a253.85,253.85,0,0,1-4.56-40.9c-.65-15.15-.89-28.17-.89-39.11q0-50.87,12.73-91.79A356.79,356.79,0,0,1,878.19,659a431,431,0,0,1,48.17-66.4q27.25-30.88,56.34-59.94,41.81-41.82,76.4-82.74,34.44-40.92,34.5-93.62,0-43.67-33.62-74.56T960.92,250.8Z"/><path class="cls-3" d="M1146.67,1176.55q0,65.67-42.52,101.39T1008,1313.71q-53.73,0-96.2-35.77t-42.46-101.39q0-65.6,42.47-101.39c43.62-36.82,108.17-45,159.25-19.18C1116.4,1078.91,1146.67,1125.48,1146.67,1176.55Z"/><path class="cls-4" d="M1099.17,1176.55q0,65.67-42.52,101.39t-96.14,35.77q-53.73,0-96.2-35.77t-42.46-101.39q0-65.6,42.46-101.39t96.2-35.77q53.65,0,96.14,35.77T1099.17,1176.55Z"/><circle class="cls-5" cx="354.62" cy="551.11" r="26.15" transform="translate(-252.39 798.13) rotate(-79.38)"/><ellipse class="cls-5" cx="378.26" cy="602.32" rx="14.71" ry="14.81" transform="translate(-283.43 863.16) rotate(-79.39)"/><circle class="cls-5" cx="290.09" cy="419.45" r="102.96" transform="translate(-211.63 327.98) rotate(-45)"/><circle class="cls-2" cx="250.56" cy="419.45" r="12.97"/><circle class="cls-2" cx="290.09" cy="419.45" r="12.97"/><circle class="cls-2" cx="329.63" cy="419.45" r="12.97"/><path class="cls-6" d="M216.33,1262.17l9.62,37.08c2.51,9.68,11.87,16.21,22.21,15.51,31.54-2.15,97.08-9.87,134.7-37.6l-10.7-53.45c-51.71-2.92-100.08,0-142,14.06C219.71,1241.3,213.65,1251.81,216.33,1262.17Z"/><path class="cls-2" d="M276.61,1291.69a1.25,1.25,0,0,1-1.2-.92l-12.92-46.25a1.25,1.25,0,0,1,2.41-.67l12.92,46.25a1.25,1.25,0,0,1-.87,1.54A1.33,1.33,0,0,1,276.61,1291.69Z"/><path class="cls-2" d="M304.53,1285.44a1.24,1.24,0,0,1-1.2-.92l-12.92-46.25a1.25,1.25,0,1,1,2.41-.67l12.91,46.25a1.24,1.24,0,0,1-.86,1.54A1.4,1.4,0,0,1,304.53,1285.44Z"/><polygon class="cls-7" points="336.95 1061.69 216.75 1097.36 306.02 1219.68 434.18 1229.87 610.95 1155.12 543.77 1054.05 336.95 1061.69"/><path class="cls-7" d="M485.14,1078.68c264-78.15,306.4,155.15-105.47,197.62-14.55-16.37-31.55-44.77-38.3-68.51l217.51-100.52Z"/><path class="cls-8" d="M496.36,1245.88c-12.35-4-24.18-11.76-24.18-11.76l-42.42,13.3,9.72,46.16,44.07,9C497,1278,497.76,1257.81,496.36,1245.88Z"/><path class="cls-9" d="M342.31,1209.41l-1.88-3.25c45.37-26.37,161.6-89.72,260.63-108.4l.69,3.68C503.3,1120,387.52,1183.13,342.31,1209.41Z"/><path class="cls-7" d="M337,1061.69C91.24,1015,27.61,1251.11,439.48,1293.58a149.61,149.61,0,0,0,32.7-59.46c-63.27-42.34-134-82.57-211.53-120.9Z"/><path class="cls-9" d="M471.17,1235.7c-11.68-7.44-23.86-15.3-36.76-23.63-64.72-41.79-138.09-89.16-200.42-116.17l1.49-3.44c62.62,27.13,136.12,74.59,201,116.46,12.89,8.32,25.06,16.18,36.74,23.62Z"/><path class="cls-9" d="M156.68,1178.77l-3.29-1.81c9.23-16.7,24-28,43.91-33.48l1,3.62C179.13,1152.41,165.52,1162.77,156.68,1178.77Z"/><path class="cls-9" d="M669.51,1164.55c-8.84-16-22.46-26.36-41.63-31.67l1-3.61c19.92,5.51,34.69,16.78,43.91,33.47Z"/><path class="cls-9" d="M416.47,1291.5l-2.74-2.56c19.65-21,31.73-43.27,36.9-67.94l3.67.77C449,1247.13,436.61,1269.94,416.47,1291.5Z"/><path class="cls-6" d="M618.9,1232.14c-31.48-19.45-92.51,14.15-107.83,15.85-4.47.5-9.63-.48-14.71-2.11,1.4,11.93.62,32.09-12.81,56.65l7.49,1.52s51.75,19,106.65,7.93C648.36,1301.79,643.65,1247.42,618.9,1232.14Z"/><path class="cls-2" d="M576,1295.75a1.26,1.26,0,0,1-.38-.06,1.24,1.24,0,0,1-.81-1.56c3.74-11.85,5.37-35.15-5.46-50.79a1.25,1.25,0,0,1,2-1.43c11.35,16.39,9.68,40.66,5.79,53A1.25,1.25,0,0,1,576,1295.75Z"/><path class="cls-2" d="M551.3,1300.44a1.31,1.31,0,0,1-.38-.06,1.25,1.25,0,0,1-.81-1.57c3.74-11.84,5.37-35.14-5.46-50.78a1.26,1.26,0,0,1,.31-1.74,1.24,1.24,0,0,1,1.74.31c11.35,16.39,9.68,40.65,5.79,53A1.25,1.25,0,0,1,551.3,1300.44Z"/><path class="cls-8" d="M293.48,757.23s61.88-52.62,59.59-62.62c-1.64-7.15-19.16,3.33-19.16,3.33s24.58-29.17,23.33-32.71C355,658.9,338,670.7,338,670.7s11.49-16.54,6-19.24-17.47,7.5-17.47,7.5,7-9.18,3.71-11.59-17.47,7.5-17.47,7.5,5.09-11.58-5.73-7.19-86.63,74-86.63,74Z"/><path class="cls-10" d="M318.8,694.81a1.23,1.23,0,0,1-.84-.32c-10.62-9.71-15.31-12.06-27-15.67a1.24,1.24,0,0,1-.82-1.56,1.25,1.25,0,0,1,1.56-.83c12.14,3.74,17,6.17,28,16.21a1.25,1.25,0,0,1,.08,1.77A1.22,1.22,0,0,1,318.8,694.81Z"/><path class="cls-10" d="M300.16,723.36l-.18,0a1.24,1.24,0,0,1-1.06-1.41c1.21-8.7,3.95-14.14,8.37-16.62,3.78-2.12,8.69-1.91,14.61.65a1.25,1.25,0,1,1-1,2.29c-5.16-2.23-9.33-2.48-12.39-.76-3.64,2-6,7-7.13,14.79A1.25,1.25,0,0,1,300.16,723.36Z"/><path class="cls-10" d="M297.24,670.75a1.25,1.25,0,0,1-.86-2.16L311.91,654a1.25,1.25,0,1,1,1.71,1.82L298.1,670.41A1.25,1.25,0,0,1,297.24,670.75Z"/><path class="cls-10" d="M311.61,675.75a1.2,1.2,0,0,1-.86-.35,1.24,1.24,0,0,1,0-1.76l14.92-15.54a1.25,1.25,0,1,1,1.8,1.73l-14.91,15.54A1.29,1.29,0,0,1,311.61,675.75Z"/><path class="cls-10" d="M326.3,684.5a1.26,1.26,0,0,1-.85-.33,1.25,1.25,0,0,1-.06-1.77l11.7-12.55a1.25,1.25,0,1,1,1.83,1.7l-11.7,12.55A1.24,1.24,0,0,1,326.3,684.5Z"/><path class="cls-11" d="M527.24,1109.18,301,1117.93,276,911.68s75.74-71.84,104.88-98.3l49.2-2.52C582.7,880.24,557.71,966.89,527.24,1109.18Z"/><path class="cls-11" d="M430.07,810.86s174.62,14.93,229.67,134.57c53.87,117.07-167.5,158.75-167.5,158.75Z"/><path class="cls-11" d="M230.46,836.5l72.16-87.81-67.47-40.9c-28.15,19.57-82.58,63.9-128.71,114.1C96.26,833,88.3,845.92,84.3,860.17a82.34,82.34,0,0,0-2.12,35.93h0c5,30.66,29.12,54.31,61.31,58.08,27.49,3.22,132.5-5,217.5-30l25-96.49C373.14,820.4,277.66,819.14,230.46,836.5Z"/><g class="cls-12"><path class="cls-2" d="M575.79,858.34l1.13-.26c-.79-.47-1.58-.92-2.37-1.38-12.8,2.95-26,6-39,7.53-7.82.94-33.95,2.67-41.59-14.75-3.8-8.66-.92-18.29,3.37-25.05-.62-.19-1.25-.36-1.87-.54-4.4,7.16-7.22,17.21-3.22,26.35,8.16,18.6,35.39,16.83,43.54,15.85C549.15,864.47,562.7,861.36,575.79,858.34Z"/><path class="cls-2" d="M657.29,993.27c-8.35-3.22-17-6.55-26-5.7-15.9,1.5-29.5,17.22-30.32,35-.56,12.15,4.08,24.88,12.92,36.08l1.6-1c-8.65-10.88-13.19-23.23-12.65-35,.79-16.92,13.62-31.84,28.62-33.25,8.62-.8,16.66,2.29,25.17,5.58,3,1.17,6.13,2.36,9.27,3.36.16-.6.32-1.21.46-1.82C663.28,995.58,660.26,994.42,657.29,993.27Z"/><path class="cls-2" d="M216.54,933.64c-10.9-9-27.84-11.43-46.47-6.61-16.6,4.29-30.84,12.8-40.62,24.05.64.21,1.27.44,1.92.63C140.89,941,154.6,933,170.54,928.84c18-4.66,34.37-2.38,44.8,6.25a40.69,40.69,0,0,1,11,15.17l1.94-.22A42.84,42.84,0,0,0,216.54,933.64Z"/><path class="cls-2" d="M118,809.63c20.43-5.07,40.36-12.2,58.75-22.79,7-4,14.79-9.11,20.31-16.6,5.87-8,7.82-17.46,5.22-25.38a19.85,19.85,0,0,0-5.09-8L195.73,738a18,18,0,0,1,4.74,7.42c2.42,7.35.57,16.21-4.94,23.69-5.31,7.21-13,12.18-19.74,16.08-17.34,10-36.1,16.9-55.36,21.89Z"/></g><path class="cls-8" d="M446.05,765l0,3.2-.51,49.73-.06,5.39a31,31,0,0,1-61.94,0l-.6-61.45Z"/><path class="cls-6" d="M446,768.21l-.51,49.73c-27.64-11.25-39-41.17-39-41.17Z"/><path class="cls-8" d="M457,681.43c9.91,11.88,38.83,79.23,9.51,102.21-33,25.86-83.2-16.64-83.2-16.64l-6.74-78.44,43.59-11.49Z"/><path class="cls-6" d="M354.32,677.11s-96.66,50.41-17.84,195.74c10.12,18.67,32.54,26.82,51.72,17.71h0a39.21,39.21,0,0,0,17.2-54.76c-12.9-22.9-25.34-52.4-20-74.34Z"/><circle class="cls-7" cx="363.45" cy="700.97" r="26.15" transform="translate(-389.21 462.31) rotate(-45)"/><path class="cls-6" d="M395.62,732.39c-2.83-16.31-4.55-27.5,11.94-35.91,0,0,58.11,10.57,69.2-11.36s-5.81-56.52-41.2-32.48C345,634.94,332.81,719.72,360.28,748l27.11-4.16A9.88,9.88,0,0,0,395.62,732.39Z"/><circle class="cls-6" cx="440.61" cy="732.44" r="3.86"/><circle class="cls-6" cx="466.76" cy="719.56" r="3.86"/><path class="cls-6" d="M464.08,744.33a1.05,1.05,0,0,1-.75-.31,1.08,1.08,0,0,1,0-1.54c1.55-1.63,3.25-3.92,2.53-5.59s-3.87-2.47-5.3-2.47c-3.08,0-4.56-5.48-4.83-6.58a1.1,1.1,0,1,1,2.13-.51c.56,2.31,1.83,4.9,2.7,4.9,1.47,0,6,.7,7.31,3.8.95,2.21,0,4.89-2.95,8A1.11,1.11,0,0,1,464.08,744.33Z"/><path class="cls-6" d="M464.28,759a1.14,1.14,0,0,1-.61-.18c-7.27-4.91-14.62-.79-14.69-.75a1.09,1.09,0,0,1-1.49-.41,1.08,1.08,0,0,1,.4-1.49c.35-.2,8.61-4.83,17,.83a1.1,1.1,0,0,1,.3,1.52A1.08,1.08,0,0,1,464.28,759Z"/><path class="cls-6" d="M438.92,715.7c2.2,4.14-1.64,5-6.12,7.36s-9.08,3.25-10.13,1.28,1.74-5.51,6.22-7.89S437.22,712.5,438.92,715.7Z"/><path class="cls-6" d="M455.28,708.24c1,3.69,3.72,2.07,7.72,1s7.24-3.06,6.78-4.82-4.08-2.34-8.08-1.3S454.53,705.38,455.28,708.24Z"/><circle class="cls-13" cx="422.78" cy="750.46" r="11.39" transform="translate(-396.79 485.44) rotate(-42.69)"/><ellipse class="cls-8" cx="379.52" cy="750.5" rx="15.43" ry="17.53" transform="translate(-446.5 592.45) rotate(-52.34)"/><path class="cls-6" d="M386.3,756.22a1.09,1.09,0,0,1-1.09-1.09,9.6,9.6,0,0,0-4.21-8,7.73,7.73,0,0,0-7.19-1,1.09,1.09,0,1,1-.83-2,9.89,9.89,0,0,1,9.24,1.17,11.76,11.76,0,0,1,5.18,9.8A1.09,1.09,0,0,1,386.3,756.22Z"/><rect class="cls-6" x="181.65" y="856.59" width="58.14" height="2.5" transform="translate(-562.23 430.25) rotate(-47.25)"/><path class="cls-6" d="M507.6,1019.13l-.73-2.39c28.74-8.75,56.62-19.23,81.89-50.83l2,1.56C565,999.63,536.73,1010.26,507.6,1019.13Z"/><path class="cls-5" d="M525.07,922.32H280.65c-8.79,0-15.91,7.71-15.91,17.22v174.51c0,9.51,7.12,17.22,15.91,17.22H525.07c8.79,0,15.92-7.71,15.92-17.22V939.54C541,930,533.86,922.32,525.07,922.32Z"/><path class="cls-14" d="M415.77,1015.76a1.76,1.76,0,0,1,1.68,1.82V1036a1.75,1.75,0,0,1-1.68,1.81H390a1.75,1.75,0,0,1-1.68-1.81v-18.43a1.76,1.76,0,0,1,1.68-1.82h25.81m0-5H390a6.76,6.76,0,0,0-6.68,6.82V1036a6.75,6.75,0,0,0,6.68,6.81h25.81a6.75,6.75,0,0,0,6.68-6.81v-18.43a6.76,6.76,0,0,0-6.68-6.82Z"/><rect class="cls-6" y="1311.68" width="1473.68" height="5"/></g></g></svg>